<svg xmlns="http://www.w3.org/2000/svg" width="660" height="590" viewBox="3213 502 660 590" fill="none" style="background-color: transparent;"><defs/><g transform="matrix(1, 0, 0, 1, 3043, -173)" opacity="1"><g data-lovart-layer-name="SVG 1"><g transform="scale(1, 1)"><g>
<path xmlns="http://www.w3.org/2000/svg" fill="#1e65fa" d="M 479.61 1223.77   Q 472.34 1211.07 466.53 1198.71   Q 465.53 1196.59 460.77 1189.26   Q 457.68 1184.51 454.36 1180.15   Q 428.02 1145.61 391.17 1120.81   Q 379.15 1112.73 365.49 1105.14   Q 359.38 1101.75 354.76 1099.73   C 349.68 1097.51 345.63 1095.02 340.16 1093.19   C 333.33 1090.91 326.34 1087.00 319.22 1084.89   C 312.65 1082.95 301.80 1079.08 292.08 1076.91   Q 268.31 1071.62 256.19 1070.11   Q 250.52 1069.41 220.35 1067.71   C 218.94 1067.63 216.92 1067.96 215.42 1067.88   Q 215.39 1067.88 215.37 1067.88   L 208.72 1069.21   A 0.80 0.80 0.0 0 1 207.76 1068.39   C 207.93 1064.54 209.14 1060.51 211.74 1057.03   Q 214.23 1053.69 217.13 1048.00   Q 218.86 1044.62 222.40 1038.90   C 228.22 1029.51 233.77 1019.95 239.45 1010.49   Q 256.20 982.62 272.15 956.46   C 282.51 939.48 290.38 925.96 302.52 905.81   Q 319.37 877.86 331.10 858.58   Q 344.26 836.95 348.66 829.64   C 359.15 812.24 364.90 802.12 375.03 786.33   C 377.36 782.71 379.69 778.03 381.98 774.23   C 393.83 754.62 400.54 743.48 407.63 731.34   Q 414.84 718.99 420.81 710.22   C 424.43 704.91 427.42 698.28 431.20 693.14   Q 432.04 692.01 435.40 686.55   Q 437.79 682.68 440.68 679.86   A 0.77 0.77 0.0 0 1 441.91 680.08   Q 446.04 688.74 450.65 696.61   Q 464.69 720.60 481.70 749.75   C 486.20 757.48 490.63 764.13 494.38 770.93   A 2.76 2.29 28.3 0 1 494.57 771.40   L 496.30 777.64   A 1.15 1.14 58.5 0 1 496.05 778.70   C 492.18 782.99 489.22 789.25 486.18 793.35   C 483.18 797.40 480.69 802.01 477.71 806.67   Q 453.51 844.51 440.28 865.82   C 438.39 868.87 435.03 873.24 432.69 877.13   Q 427.00 886.61 424.52 890.30   C 416.99 901.49 413.14 908.24 404.54 921.54   C 401.84 925.72 399.25 930.30 396.22 934.93   Q 382.42 956.05 372.19 972.62   C 365.70 983.13 359.08 992.88 354.30 1001.17   C 351.49 1006.04 346.94 1011.07 345.70 1016.29   A 1.69 1.64 70.8 0 1 345.42 1016.89   L 344.11 1018.57   A 1.26 1.25 -73.6 0 0 345.21 1020.59   Q 351.97 1020.02 355.60 1020.15   Q 361.71 1020.39 363.41 1020.37   Q 386.77 1020.19 407.65 1020.31   C 412.97 1020.34 418.38 1019.85 423.90 1020.81   A 2.54 2.52 83.3 0 1 425.81 1022.33   C 431.48 1036.03 436.78 1047.52 442.23 1061.23   Q 450.02 1080.80 450.27 1081.49   C 456.97 1100.26 462.88 1118.35 466.97 1136.72   C 470.62 1153.13 473.55 1166.85 475.68 1182.24   Q 476.29 1186.61 477.30 1192.99   Q 478.62 1201.31 478.58 1203.78   Q 478.41 1214.10 480.28 1222.45   Q 480.40 1222.98 480.22 1223.68   A 0.33 0.33 0.0 0 1 479.61 1223.77   Z"/>
<path xmlns="http://www.w3.org/2000/svg" fill="#1e65fa" d="M 757.93 683.72   A 3.96 3.96 0.0 0 1 761.89 687.68   L 761.89 786.38   A 6.38 6.32 -0.0 0 1 755.51 792.70   L 666.49 792.70   A 6.38 6.32 -0.0 0 1 660.11 786.38   L 660.11 687.68   A 3.96 3.96 0.0 0 1 664.07 683.72   L 757.93 683.72   Z"/>
<path xmlns="http://www.w3.org/2000/svg" fill="#1e65fa" d="M 526.55 1225.14   Q 526.25 1223.52 526.43 1222.38   C 529.63 1202.89 530.73 1195.30 534.12 1177.59   Q 539.74 1148.24 544.06 1116.27   Q 545.52 1105.45 545.62 1092.00   C 545.68 1084.33 545.23 1080.53 544.20 1072.91   Q 541.56 1053.28 530.59 1032.73   Q 500.86 977.00 487.69 956.04   A 2.68 2.65 33.2 0 1 487.31 954.27   Q 487.84 950.39 488.51 948.96   C 491.02 943.60 494.70 939.08 498.05 933.26   Q 501.38 927.48 509.09 915.05   Q 522.40 893.60 536.80 870.47   C 539.43 866.24 542.23 863.21 544.84 859.63   A 0.74 0.74 0.0 0 1 546.11 859.74   Q 548.59 864.87 550.89 868.88   Q 573.92 909.06 579.60 918.28   C 586.33 929.22 594.68 944.11 600.09 953.14   Q 615.12 978.28 635.03 1012.32   C 637.27 1016.16 640.23 1019.83 642.13 1023.46   Q 645.59 1030.06 651.23 1038.31   A 6.77 6.54 -89.0 0 0 652.61 1039.79   Q 654.94 1041.63 656.80 1044.42   A 2.11 1.88 56.8 0 0 659.51 1045.15   Q 660.03 1044.82 660.02 1043.75   Q 659.95 1006.03 660.16 882.50   Q 660.20 863.72 660.02 846.69   C 659.98 842.86 660.62 839.57 660.41 836.54   A 0.67 0.66 -6.7 0 1 660.97 835.84   Q 667.02 834.83 670.25 834.87   Q 715.12 835.33 755.44 834.81   Q 755.95 834.80 760.78 835.82   A 0.62 0.61 -82.4 0 1 761.26 836.46   C 761.08 838.97 761.91 841.51 761.91 844.20   Q 761.91 854.61 761.77 904.25   Q 761.74 914.71 762.00 1060.40   C 762.00 1062.43 761.69 1065.43 761.46 1066.76   A 1.59 1.59 0.0 0 1 760.53 1067.94   C 754.92 1070.44 747.41 1069.85 742.00 1070.95   C 727.60 1073.87 717.76 1075.28 705.83 1079.09   Q 687.76 1084.86 673.27 1090.65   C 650.71 1099.65 630.28 1110.97 611.53 1124.29   Q 603.28 1130.15 589.68 1141.95   Q 573.07 1156.35 557.98 1175.73   Q 555.98 1178.30 547.40 1189.47   A 24.83 24.37 78.2 0 0 545.25 1192.83   Q 540.83 1201.22 535.98 1207.07   A 7.18 7.12 -13.4 0 0 534.95 1208.73   L 527.54 1225.25   A 0.52 0.52 0.0 0 1 526.55 1225.14   Z"/>
<path xmlns="http://www.w3.org/2000/svg" fill="#1e65fa" d="M 182.13 1139.17   C 182.03 1136.23 183.46 1131.55 185.21 1127.81   Q 191.84 1113.68 197.31 1098.59   Q 198.39 1095.59 200.23 1093.53   A 2.31 2.29 22.8 0 1 202.11 1092.77   Q 214.58 1093.75 216.83 1094.36   Q 230.92 1098.21 243.83 1099.55   Q 252.05 1100.41 256.08 1101.41   C 260.36 1102.47 266.47 1103.47 272.23 1105.13   Q 295.12 1111.73 313.28 1118.27   Q 318.00 1119.97 336.17 1127.61   Q 343.13 1130.53 362.60 1140.95   Q 365.14 1142.31 371.82 1146.64   C 376.94 1149.96 381.53 1153.66 385.79 1156.12   C 389.90 1158.50 393.29 1161.99 397.47 1164.58   Q 400.30 1166.34 404.16 1169.77   Q 406.10 1171.49 411.04 1175.25   C 420.83 1182.71 427.88 1191.27 437.61 1202.22   Q 440.74 1205.75 444.23 1210.60   Q 447.68 1215.39 450.81 1218.95   Q 451.97 1220.28 452.51 1221.83   A 0.73 0.73 0.0 0 1 451.87 1222.80   C 448.14 1223.09 448.27 1219.53 447.25 1217.03   A 2.41 2.41 0.0 0 0 445.62 1215.61   Q 445.57 1215.60 441.93 1214.62   A 4.27 3.41 89.5 0 1 439.31 1211.39   Q 439.12 1210.36 438.42 1209.35   A 1.63 1.61 -12.8 0 0 437.36 1208.69   Q 433.73 1208.14 431.82 1206.44   Q 424.15 1199.59 414.47 1192.04   C 410.09 1188.63 405.07 1186.61 400.83 1183.79   C 396.36 1180.82 391.13 1178.78 387.45 1176.43   Q 383.76 1174.07 380.10 1172.73   C 374.79 1170.80 368.72 1167.14 362.68 1165.29   Q 357.12 1163.58 343.61 1158.13   Q 341.38 1157.22 337.75 1156.25   C 322.75 1152.25 305.48 1147.87 288.51 1144.79   Q 276.57 1142.63 259.52 1141.30   C 236.36 1139.49 214.43 1137.76 193.25 1139.28   Q 188.45 1139.62 183.80 1140.50   A 1.41 1.41 0.0 0 1 182.13 1139.17   Z"/>
<path xmlns="http://www.w3.org/2000/svg" fill="#1e65fa" d="M 819.86 1140.16   A 0.57 0.56 15.0 0 1 818.92 1140.70   Q 817.43 1139.29 816.52 1139.25   C 809.23 1138.99 796.23 1138.46 785.83 1138.90   Q 762.38 1139.89 757.02 1140.37   Q 746.59 1141.30 731.25 1143.40   C 722.76 1144.56 713.75 1147.38 705.42 1148.77   Q 699.17 1149.81 693.62 1151.51   C 689.46 1152.79 683.44 1153.82 677.93 1155.44   Q 673.43 1156.76 658.40 1161.43   C 651.10 1163.69 644.97 1166.92 636.24 1170.54   Q 630.84 1172.79 626.33 1175.19   C 621.98 1177.50 617.43 1179.26 613.23 1181.67   Q 604.39 1186.73 602.02 1188.28   Q 595.19 1192.72 594.66 1192.99   C 590.42 1195.11 588.21 1197.07 584.16 1199.45   C 581.74 1200.86 580.35 1202.41 578.02 1204.53   A 5.87 5.12 3.9 0 1 577.19 1205.16   Q 573.82 1207.25 571.09 1210.25   A 4.44 4.17 1.8 0 1 570.40 1210.86   L 559.11 1218.94   A 0.45 0.40 81.7 0 0 558.97 1219.15   Q 558.39 1221.17 554.87 1223.90   A 0.76 0.75 -25.6 0 1 553.67 1223.48   Q 552.92 1220.28 555.52 1218.63   C 556.41 1218.07 557.75 1218.00 558.72 1217.47   A 1.08 1.08 0.0 0 0 559.29 1216.63   C 559.67 1213.17 562.04 1210.66 564.65 1208.38   A 2.59 2.59 0.0 0 0 565.28 1207.55   Q 566.94 1204.08 570.31 1201.04   Q 573.24 1198.39 573.61 1197.87   C 574.77 1196.24 576.59 1194.23 577.76 1193.34   C 581.41 1190.57 584.24 1187.26 587.75 1184.22   Q 596.63 1176.54 607.76 1167.40   Q 611.56 1164.27 614.20 1162.63   C 617.63 1160.49 619.62 1158.58 623.05 1156.65   Q 626.52 1154.69 629.99 1152.21   C 635.95 1147.97 639.70 1146.28 646.59 1142.03   Q 650.31 1139.74 656.45 1136.63   Q 672.20 1128.65 678.90 1125.93   C 688.81 1121.91 698.28 1117.88 708.77 1114.35   C 725.87 1108.60 744.45 1103.27 763.28 1100.46   Q 779.60 1098.02 792.37 1095.45   C 796.53 1094.61 798.28 1095.08 802.53 1095.16   A 0.90 0.89 -12.4 0 1 803.32 1095.66   C 805.64 1100.27 806.98 1105.88 809.07 1110.33   Q 810.95 1114.34 813.00 1120.83   C 814.21 1124.68 815.86 1127.51 817.58 1131.09   A 3.33 2.96 -68.2 0 1 817.80 1131.70   L 819.86 1140.16   Z"/>
<path xmlns="http://www.w3.org/2000/svg" fill="#1e65fa" d="M 819.57 1226.71   C 816.29 1225.23 812.68 1225.19 809.46 1224.45   C 802.76 1222.92 796.56 1221.46 790.09 1220.49   C 761.53 1216.21 735.09 1213.17 706.84 1215.28   Q 676.46 1217.55 647.38 1222.35   Q 645.29 1222.69 634.89 1225.45   Q 625.83 1227.84 622.45 1228.75   Q 601.78 1234.31 588.70 1239.26   Q 576.45 1243.90 576.12 1244.01   Q 569.11 1246.35 563.79 1249.25   Q 560.64 1250.96 551.42 1254.98   C 549.79 1255.69 547.72 1257.27 546.41 1257.87   Q 542.11 1259.84 538.70 1261.93   A 0.60 0.60 0.0 0 1 537.84 1261.18   L 538.67 1259.33   A 2.55 2.51 89.5 0 1 539.88 1258.08   C 542.50 1256.81 541.37 1255.37 542.41 1253.61   C 544.53 1250.03 548.67 1248.37 550.90 1245.08   Q 552.20 1243.17 554.92 1241.31   Q 556.01 1240.57 559.18 1237.78   Q 574.38 1224.44 578.53 1221.28   C 582.23 1218.47 588.32 1213.80 593.21 1211.48   C 597.94 1209.25 601.90 1205.82 606.75 1203.79   Q 609.81 1202.51 615.11 1199.48   Q 618.47 1197.55 623.61 1195.45   Q 637.27 1189.86 649.68 1185.71   C 659.47 1182.43 667.50 1180.57 677.13 1177.91   C 688.84 1174.68 697.61 1173.85 714.32 1171.50   C 732.51 1168.94 752.61 1168.85 769.00 1169.69   Q 792.10 1170.86 817.49 1176.16   C 820.41 1176.76 823.03 1177.81 825.56 1179.03   A 1.41 1.39 15.3 0 1 826.35 1180.39   C 825.68 1189.12 824.72 1194.77 824.08 1203.56   Q 823.42 1212.70 822.15 1220.48   Q 821.67 1223.46 820.37 1226.40   A 0.61 0.60 -65.8 0 1 819.57 1226.71   Z"/>
<path xmlns="http://www.w3.org/2000/svg" fill="#1e65fa" d="M 468.15 1261.84   C 466.71 1262.26 464.09 1260.32 462.90 1259.32   A 4.54 4.53 78.8 0 0 462.08 1258.77   Q 450.45 1252.78 438.13 1246.38   C 434.53 1244.51 428.11 1243.15 423.91 1241.08   C 417.37 1237.86 410.14 1236.07 404.27 1233.91   Q 398.50 1231.78 393.55 1230.42   Q 368.71 1223.55 347.41 1220.15   Q 340.71 1219.08 326.11 1217.55   Q 313.47 1216.23 304.75 1215.48   Q 285.34 1213.82 264.50 1215.31   Q 230.41 1217.73 209.87 1220.92   Q 198.32 1222.72 186.29 1226.08   Q 184.19 1226.66 182.36 1225.88   A 1.81 1.78 -4.7 0 1 181.59 1225.24   Q 179.64 1222.23 179.45 1219.99   Q 177.98 1202.62 175.57 1182.44   C 175.06 1178.13 177.31 1178.27 180.93 1177.39   Q 190.62 1175.05 194.97 1174.43   C 207.74 1172.61 223.65 1170.20 237.40 1169.89   Q 255.17 1169.50 272.25 1169.55   C 286.24 1169.60 298.32 1172.05 312.99 1174.35   C 324.73 1176.20 335.65 1179.72 347.12 1181.87   Q 349.34 1182.29 352.51 1183.49   Q 361.35 1186.85 370.04 1189.97   Q 375.32 1191.87 378.32 1193.36   C 384.88 1196.64 391.65 1198.68 397.64 1202.33   C 402.27 1205.14 407.28 1206.76 412.35 1210.18   Q 416.75 1213.14 427.75 1220.18   Q 432.23 1223.04 439.95 1230.29   C 441.65 1231.89 444.13 1233.35 445.71 1235.24   Q 449.13 1239.31 452.53 1241.59   A 2.29 2.10 -2.4 0 1 452.91 1241.91   L 463.25 1252.68   A 4.30 4.16 -80.9 0 1 463.99 1253.74   Q 465.50 1256.83 468.42 1260.35   A 0.98 0.83 60.1 0 1 468.15 1261.84   Z"/>
</g></g></g></g></svg>