<svg width="1300" height="924" viewBox="0 0 1300 924" xmlns="http://www.w3.org/2000/svg" font-family="'PingFang SC','Noto Sans SC',system-ui,-apple-system,'Microsoft YaHei',sans-serif"><defs>
  <marker id="arr" markerWidth="9" markerHeight="9" refX="7.5" refY="3" orient="auto"><path d="M0,0 L8,3 L0,6 z" fill="#4f46e5"/></marker>
  <marker id="arrG" markerWidth="9" markerHeight="9" refX="7.5" refY="3" orient="auto"><path d="M0,0 L8,3 L0,6 z" fill="#9aa0b4"/></marker>
  <marker id="arrJ" markerWidth="9" markerHeight="9" refX="7.5" refY="3" orient="auto"><path d="M0,0 L8,3 L0,6 z" fill="#15b080"/></marker>
  <marker id="arrA" markerWidth="9" markerHeight="9" refX="7.5" refY="3" orient="auto"><path d="M0,0 L8,3 L0,6 z" fill="#ff7a5c"/></marker>
  </defs><text x="40" y="40" font-size="21" fill="#14182a" font-weight="800" text-anchor="start">图 9 · 登录 · 微信授权 · 手机号绑定流程</text><text x="40" y="66" font-size="13" fill="#5b6178" font-weight="400" text-anchor="start">微信内 / 外部浏览器两种授权交互汇聚；H5 公众号网页无法一键获取手机号 → 统一「手机号 + 验证码」绑定</text><rect x="500" y="92" width="300" height="52" rx="11" fill="#fff" stroke="#e3e5ee" stroke-width="1.5"/><rect x="500" y="92" width="5" height="52" rx="2.5" fill="#4f46e5"/><text x="650" y="114" font-size="14" fill="#14182a" font-weight="700" text-anchor="middle">打开 H5 落地页</text><text x="650" y="132" font-size="11.5" fill="#5b6178" font-weight="400" text-anchor="middle">链接带 KP 标识 · 未登录可只读</text><rect x="180" y="176" width="280" height="50" rx="11" fill="#fff" stroke="#e3e5ee" stroke-width="1.5"/><rect x="180" y="176" width="5" height="50" rx="2.5" fill="#15b080"/><text x="320" y="206" font-size="14" fill="#14182a" font-weight="700" text-anchor="middle">① 微信授权登录</text><rect x="860" y="176" width="300" height="50" rx="11" fill="#fff" stroke="#e3e5ee" stroke-width="1.5"/><rect x="860" y="176" width="5" height="50" rx="2.5" fill="#ff7a5c"/><text x="1010" y="206" font-size="14" fill="#14182a" font-weight="700" text-anchor="middle">② 手机号验证码登录</text><path d="M650,144 L650,160 L320,160 L320,176" stroke="#4f46e5" stroke-width="2" fill="none" marker-end="url(#arr)" /><path d="M650,160 L1010,160 L1010,176" stroke="#4f46e5" stroke-width="2" fill="none" marker-end="url(#arr)" /><path d="M320,226 L320,252" stroke="#4f46e5" stroke-width="2" fill="none" marker-end="url(#arr)" /><polygon points="320,255 425,296 320,337 215,296" fill="#eef0fb" stroke="#4f46e5" stroke-width="1.5"/><text x="320" y="293" font-size="12.5" fill="#3730a3" font-weight="600" text-anchor="middle">微信内置浏览器</text><text x="320" y="309" font-size="12.5" fill="#3730a3" font-weight="600" text-anchor="middle">打开 ?</text><path d="M215,296 L120,296 L120,362" stroke="#15b080" stroke-width="2" fill="none" marker-end="url(#arrJ)" /><rect x="121.5" y="281" width="87" height="17" rx="4" fill="#fff" opacity="0.92"/><text x="165" y="293.5" font-size="11" fill="#0f7a59" font-weight="700" text-anchor="middle">是 · 微信内</text><rect x="20" y="362" width="250" height="60" rx="11" fill="#fff" stroke="#e3e5ee" stroke-width="1.5"/><rect x="20" y="362" width="5" height="60" rx="2.5" fill="#15b080"/><text x="145" y="388" font-size="14" fill="#14182a" font-weight="700" text-anchor="middle">微信官方授权弹窗</text><text x="145" y="406" font-size="11.5" fill="#5b6178" font-weight="400" text-anchor="middle">授权 昵称 / 头像 / 性别 / 地区</text><path d="M425,296 L510,296 L510,362" stroke="#4f46e5" stroke-width="2" fill="none" marker-end="url(#arr)" /><rect x="431" y="281" width="74" height="17" rx="4" fill="#fff" opacity="0.92"/><text x="468" y="293.5" font-size="11" fill="#3730a3" font-weight="700" text-anchor="middle">否 · 外部</text><rect x="360" y="362" width="300" height="60" rx="11" fill="#fff" stroke="#e3e5ee" stroke-width="1.5"/><rect x="360" y="362" width="5" height="60" rx="2.5" fill="#4f46e5"/><text x="510" y="388" font-size="14" fill="#14182a" font-weight="700" text-anchor="middle">微信扫码授权页</text><text x="510" y="406" font-size="11.5" fill="#5b6178" font-weight="400" text-anchor="middle">open.weixin.qq.com 动态二维码 · 扫码确认</text><polygon points="320,451 420,488 320,525 220,488" fill="#eef0fb" stroke="#4f46e5" stroke-width="1.5"/><text x="320" y="493" font-size="12.5" fill="#3730a3" font-weight="600" text-anchor="middle">允许授权 ?</text><path d="M145,422 L145,488 L220,488" stroke="#15b080" stroke-width="2" fill="none" marker-end="url(#arrJ)" /><path d="M510,422 L510,488 L420,488" stroke="#4f46e5" stroke-width="2" fill="none" marker-end="url(#arr)" /><text x="548" y="462" font-size="11.5" fill="#9aa0b4" font-weight="400" text-anchor="start">拒绝 → 留登录页</text><path d="M320,525 L320,566" stroke="#4f46e5" stroke-width="2" fill="none" marker-end="url(#arr)" /><rect x="249" y="539" width="142" height="17" rx="4" fill="#fff" opacity="0.92"/><text x="320" y="551.5" font-size="11" fill="#3730a3" font-weight="700" text-anchor="middle">允许 · 携 code 回调</text><rect x="180" y="566" width="280" height="58" rx="11" fill="#fff" stroke="#e3e5ee" stroke-width="1.5"/><rect x="180" y="566" width="5" height="58" rx="2.5" fill="#4f46e5"/><text x="320" y="591" font-size="14" fill="#14182a" font-weight="700" text-anchor="middle">授权回调</text><text x="320" y="609" font-size="11.5" fill="#5b6178" font-weight="400" text-anchor="middle">拉取头像 / 昵称 / 性别 / 地区写入资料</text><path d="M1010,226 L1010,254" stroke="#ff7a5c" stroke-width="2" fill="none" marker-end="url(#arrA)" /><rect x="880" y="254" width="260" height="50" rx="11" fill="#fff" stroke="#e3e5ee" stroke-width="1.5"/><rect x="880" y="254" width="5" height="50" rx="2.5" fill="#ff7a5c"/><text x="1010" y="284" font-size="14" fill="#14182a" font-weight="700" text-anchor="middle">输入手机号 + 验证码</text><path d="M1010,304 L1010,336" stroke="#ff7a5c" stroke-width="2" fill="none" marker-end="url(#arrA)" /><rect x="977" y="313" width="66" height="17" rx="4" fill="#fff" opacity="0.92"/><text x="1010" y="325.5" font-size="11" fill="#c2410c" font-weight="700" text-anchor="middle">校验通过</text><rect x="870" y="336" width="280" height="58" rx="11" fill="#fff" stroke="#e3e5ee" stroke-width="1.5"/><rect x="870" y="336" width="5" height="58" rx="2.5" fill="#ff7a5c"/><text x="1010" y="361" font-size="14" fill="#14182a" font-weight="700" text-anchor="middle">登录成功</text><text x="1010" y="379" font-size="11.5" fill="#5b6178" font-weight="400" text-anchor="middle">不获取 / 绑定任何微信信息</text><path d="M320,624 L320,660" stroke="#4f46e5" stroke-width="2" fill="none" marker-end="url(#arr)" /><polygon points="320,665 430,706 320,747 210,706" fill="#eef0fb" stroke="#4f46e5" stroke-width="1.5"/><text x="320" y="711" font-size="12.5" fill="#3730a3" font-weight="600" text-anchor="middle">已绑手机号 ?</text><path d="M430,706 L580,706" stroke="#ff7a5c" stroke-width="2" fill="none" marker-end="url(#arrA)" /><rect x="491.5" y="691" width="27" height="17" rx="4" fill="#fff" opacity="0.92"/><text x="505" y="703.5" font-size="11" fill="#c2410c" font-weight="700" text-anchor="middle">否</text><rect x="580" y="678" width="330" height="58" rx="11" fill="#fff" stroke="#e3e5ee" stroke-width="1.5"/><rect x="580" y="678" width="5" height="58" rx="2.5" fill="#ff7a5c"/><text x="745" y="703" font-size="14" fill="#c2410c" font-weight="700" text-anchor="middle">引导绑定手机号</text><text x="745" y="721" font-size="11.5" fill="#5b6178" font-weight="400" text-anchor="middle">可「暂不绑定」直接进 · 基础功能可用</text><rect x="500" y="824" width="300" height="60" rx="11" fill="#fff" stroke="#e3e5ee" stroke-width="1.5"/><rect x="500" y="824" width="5" height="60" rx="2.5" fill="#15b080"/><text x="650" y="850" font-size="14" fill="#0f7a59" font-weight="700" text-anchor="middle">进入 AI 会话页</text><text x="650" y="868" font-size="11.5" fill="#5b6178" font-weight="400" text-anchor="middle">按 KP 拉取绑定 Agent · 登录态 30 天</text><path d="M320,747 L320,854 L500,854" stroke="#15b080" stroke-width="2" fill="none" marker-end="url(#arrJ)" /><rect x="366.5" y="831" width="27" height="17" rx="4" fill="#fff" opacity="0.92"/><text x="380" y="843.5" font-size="11" fill="#0f7a59" font-weight="700" text-anchor="middle">是</text><path d="M745,736 L745,794 L680,794 L680,824" stroke="#ff7a5c" stroke-width="2" fill="none" marker-end="url(#arrA)" /><path d="M1010,394 L1010,802 L790,802 L790,824" stroke="#ff7a5c" stroke-width="2" fill="none" marker-end="url(#arrA)" /></svg>