<?xml version="1.0" encoding="UTF-8"?>
<svg xmlns="http://www.w3.org/2000/svg" width="582" height="191" viewBox="0 0 2328 764" role="img" aria-labelledby="title desc">
<title id="title">AI问书 icon</title>
<desc id="desc">AI问书 logo vectorized from the uploaded brand sheet.</desc>
<g fill-rule="evenodd" clip-rule="evenodd">
<path fill="#2563EB" d="M488 743L480 743L478 747L475 747L472 751L468 752L475 753L479 749L483 749L484 745ZM500 735L501 737L504 737L504 735ZM327 727L329 729L335 728L336 732L334 733L338 732L341 736L351 737L352 740L359 741L360 744L367 745L369 748L372 748L376 753L381 752L377 751L377 748L371 747L370 743L363 743L363 740L357 739L355 735L346 735L345 733L347 732L338 731L338 727ZM474 724L468 725L469 730L471 726L474 726ZM276 712L284 712L285 717L296 716L297 720L301 721L311 720L312 725L326 723L318 723L317 719L305 719L305 715L290 716L287 712ZM29 709L29 712L32 712L32 709ZM813 707L813 712L820 712L819 707ZM592 707L580 707L580 711L562 711L560 712L560 715L548 715L548 719L536 719L536 723L526 723L526 727L520 727L519 729L516 727L515 731L507 732L519 733L517 732L518 729L532 728L533 725L539 725L540 720L552 721L556 720L557 716L568 717L569 713L584 712L585 709L592 709ZM265 707L265 709L269 709L269 712L272 712L272 709L274 708ZM241 705L256 704L246 703ZM781 700L781 704L804 704L785 704L784 701L788 700ZM624 700L613 699L613 703L597 704L619 704L616 702L617 700ZM629 700L660 701L668 700L669 697L716 696L728 697L729 700L776 701L773 699L760 698L761 696L767 696L765 695L638 695L637 696L644 696L645 698ZM373 692L371 692L371 696L373 695ZM40 704L64 704L65 700L68 700L69 704L72 704L73 701L104 700L105 697L109 696L188 696L189 700L192 700L193 697L200 700L200 698L204 696L205 701L228 701L229 704L232 704L233 700L236 700L237 704L239 704L239 701L241 700L216 698L221 695L182 695L181 693L183 692L181 691L122 691L116 692L124 692L124 695L85 695L90 696L91 698L82 699L81 701L76 699L57 699L55 700L57 701L56 703ZM160 693L168 692L169 694L161 695ZM404 672L403 695L405 691ZM476 671L475 679L471 679L471 685L467 688L468 693L468 689L473 688L477 677ZM502 668L499 670L496 669L496 674L498 674L498 671L502 670ZM515 653L513 652L513 655L504 662L505 666ZM526 644L522 646L526 646ZM495 643L497 648L497 644ZM836 640L835 652L832 653L831 697L833 688L833 669L836 668L836 665L832 664L832 660L837 657L838 641ZM528 640L528 642L530 642L530 640ZM400 640L399 669L405 669L405 665L401 665L402 653ZM354 639L351 641L353 643ZM13 638L12 656L14 661L13 665L16 666L15 688L16 697L18 699L18 662L14 661L15 653ZM453 637L452 657L454 659ZM531 637L534 638L534 636ZM231 638L241 638L242 636L245 636L232 636ZM609 636L610 638L624 638L622 636L617 637L616 635ZM593 636L595 635L596 637L600 637L599 635ZM624 632L624 634L640 633ZM346 631L345 635L352 637L349 634L349 631ZM38 630L37 628L27 629ZM790 625L809 626L807 624ZM60 626L57 624L44 625ZM341 623L336 625L341 625ZM686 621L791 622L792 620L795 620L757 622L756 620L720 622L716 620ZM57 620L60 622L60 620ZM556 617L559 618L559 616ZM396 616L395 639L397 633ZM521 615L515 620L517 622L516 625L511 623L512 628L518 621L520 621ZM458 613L456 621L457 637ZM670 611L673 613L685 612ZM525 611L523 613L525 613ZM291 613L289 611L287 614ZM689 607L689 609L713 608ZM144 607L144 609L149 610L169 608ZM282 604L281 606L283 605L283 609L285 610L285 606ZM25 605L48 605L35 605L34 603L27 603ZM269 601L272 602L273 600ZM714 603L725 606L818 605L817 603L808 603L806 605L768 605L765 602L766 599L769 601L806 601L813 599L757 599L760 599L761 602ZM312 599L313 602L316 600ZM393 596L391 598L392 616ZM271 596L265 598L269 598ZM543 595L544 598L545 597ZM547 591L549 594L552 593L551 591ZM304 591L308 597L312 596L307 595L306 591ZM1114 581L1112 585L1114 585ZM2295 577L2293 580L2296 579ZM465 573L464 587L466 591ZM226 574L229 572L226 572ZM1114 573L1112 571L1110 575L1111 573L1114 575ZM649 564L652 566L655 565ZM385 562L383 564L383 578L385 575ZM198 560L198 562L201 563L199 566L203 563L209 567L208 570L215 569L213 565L209 564L207 561ZM177 553L180 552L181 555L184 555L184 552ZM174 553L170 552L165 554ZM619 551L611 551L608 555L604 556L605 558L610 557ZM32 550L34 556L34 550ZM381 549L379 552L380 564L382 556ZM811 546L811 557L815 558L816 567L819 570L819 574L822 576L823 584L827 585L828 593L829 584L825 580L825 573L824 576L821 575L821 566L816 565L817 558L813 555ZM140 545L152 546L156 544L157 548L152 550L166 550L161 548L160 544ZM709 540L714 542L720 541ZM38 539L36 540L36 547L38 549ZM808 539L806 548L803 546L800 537L790 536L783 538L768 538L709 550L657 567L655 570L650 570L634 579L621 582L619 586L612 586L613 588L609 591L600 589L605 591L602 595L597 593L596 598L590 598L591 600L581 607L577 606L578 608L569 615L561 613L566 616L561 619L559 623L550 621L554 625L547 631L543 628L540 628L539 632L536 631L535 634L537 635L540 631L544 630L545 632L526 651L519 655L494 683L491 683L489 680L488 682L492 685L490 687L485 685L485 688L487 687L488 689L483 694L484 701L493 698L504 686L507 687L508 691L504 691L502 695L499 695L498 699L483 709L485 713L487 710L490 710L491 712L480 722L475 730L467 736L465 747L471 746L480 739L497 731L548 711L587 702L593 699L602 699L614 695L625 695L638 691L707 687L728 690L764 691L777 695L789 695L802 699L810 699L816 702L823 702L826 688L826 663L829 641L824 636L812 635L807 632L808 630L824 630L823 628L811 628L807 631L795 631L781 627L752 626L685 627L684 629L675 631L659 631L657 629L649 629L648 627L638 628L639 630L658 630L659 632L653 635L645 635L638 639L628 639L622 643L615 643L608 647L600 647L598 643L610 642L609 640L597 640L596 644L588 644L584 647L581 646L583 644L576 643L575 644L580 644L581 647L575 651L571 651L570 649L573 648L568 647L568 651L560 651L562 653L561 655L554 656L559 656L559 659L553 660L551 663L549 663L548 661L550 660L547 659L544 667L533 668L536 669L535 671L531 672L530 675L523 675L524 678L519 679L518 683L513 683L511 688L506 686L507 683L524 670L527 672L529 671L526 670L529 666L532 666L548 654L552 655L551 653L553 651L573 642L577 638L582 638L584 640L587 639L583 639L582 637L586 634L591 634L595 630L613 633L614 629L619 630L625 628L612 627L611 625L615 622L623 622L630 626L640 625L638 623L623 622L627 618L636 618L637 620L645 622L656 621L657 626L682 625L661 624L660 621L654 621L652 619L636 618L641 614L650 614L654 617L661 618L665 616L652 615L651 613L655 610L666 610L672 606L685 606L691 602L710 602L718 598L748 598L766 595L808 595L821 597L822 589L806 554L806 549L809 545ZM494 706L495 708L491 711L490 708ZM494 706L496 703L499 704L497 707ZM504 698L505 700L500 703L499 700ZM504 698L507 694L510 695L507 699ZM509 694L510 691L515 691L512 695ZM526 683L518 691L514 690L514 688L518 687L520 683ZM533 679L530 683L526 682L527 679ZM546 672L537 679L532 678L540 671ZM536 670L538 669L539 671L537 672ZM546 667L552 666L554 669L552 671L547 671ZM554 666L555 663L561 663L559 667ZM561 662L563 658L570 659L567 663ZM570 658L572 654L579 655L576 659ZM562 653L565 652L566 654L563 655ZM599 647L597 650L591 651L585 655L578 654L580 650L588 650L590 646ZM601 629L605 626L611 626L613 630L602 631ZM124 536L126 537L125 542L138 542L140 540L144 540L133 541L132 537ZM28 558L28 567L25 568L25 575L22 576L20 584L16 588L17 595L22 587L22 577L24 576L25 580L26 569L29 568L32 571L30 579L27 582L27 586L23 590L24 597L51 594L99 595L103 597L102 599L30 599L35 601L88 600L98 601L99 604L81 605L132 606L142 605L146 602L166 602L174 606L186 606L191 609L190 611L169 611L169 613L183 614L188 613L191 610L203 610L206 613L205 615L188 616L200 619L206 614L216 614L220 617L219 619L208 618L204 620L213 622L220 618L228 618L232 621L231 623L218 623L218 625L228 625L232 622L241 622L244 625L243 627L230 627L230 629L235 630L241 629L244 626L250 626L254 630L246 631L244 633L260 630L263 634L255 635L252 640L245 640L242 643L233 643L226 639L218 639L211 635L201 635L196 632L197 630L215 630L215 634L231 634L232 632L217 632L216 629L212 627L199 628L196 631L177 631L171 628L172 626L198 626L200 624L173 625L172 623L174 621L169 620L65 621L171 622L172 626L163 628L138 626L68 627L57 631L43 631L36 635L22 637L19 641L19 648L23 667L23 696L25 703L57 695L69 695L77 692L100 691L122 687L181 687L201 691L220 691L231 695L245 695L255 699L263 699L304 711L355 731L380 746L385 745L386 739L389 737L389 733L386 737L383 736L376 727L378 726L383 731L384 727L370 713L369 708L366 709L358 702L360 699L369 704L369 700L366 696L366 692L369 691L369 684L367 684L365 680L362 680L361 675L359 675L357 671L354 671L354 668L350 666L349 662L347 663L345 658L343 659L342 656L338 654L337 650L335 651L334 648L331 647L317 631L312 629L309 624L303 625L302 627L298 626L297 624L302 622L302 619L299 619L297 623L294 623L292 619L297 618L298 616L288 619L285 615L269 606L267 603L247 592L253 588L244 591L240 587L236 587L232 583L224 580L229 577L223 579L217 578L205 571L160 555L95 540L50 536L47 537L35 562L35 566L32 569L30 568L30 559ZM369 720L372 719L377 726L374 727ZM365 715L367 714L369 718L367 719ZM361 712L364 711L365 714L363 715ZM356 707L358 706L361 710L359 711ZM352 703L354 702L357 706L354 707ZM348 700L350 699L353 702L350 703ZM344 696L347 695L348 698L346 699ZM338 692L342 691L343 694L340 695ZM345 687L347 686L359 697L359 699L354 699L353 696L345 690ZM332 687L334 686L338 690L334 691ZM327 684L331 683L333 686L329 687ZM358 682L361 681L363 685L366 686L367 690L363 691ZM320 679L326 679L327 682L323 683ZM315 676L319 675L320 678L317 679ZM325 672L329 670L346 686L341 687L340 683L336 683L335 679L331 679L330 675L326 675ZM307 671L314 671L315 674L310 675ZM344 667L346 666L359 681L357 682ZM300 667L306 666L307 670L302 671ZM340 663L344 663L345 666L343 667ZM309 665L317 662L327 670L324 672L319 671L318 667L313 668ZM292 663L300 662L301 665L299 667L295 667ZM301 661L303 660L304 662L302 663ZM336 659L340 659L341 662L339 663ZM285 659L291 658L294 661L292 663L287 663ZM332 655L336 655L337 658L335 659ZM276 655L283 654L284 658L279 659ZM328 651L332 651L333 654L331 655ZM293 653L295 650L299 650L303 654L314 659L315 662L309 664L306 659L301 659L299 655L294 655ZM266 651L275 651L276 654L269 655ZM325 647L327 646L329 650L327 651ZM285 649L287 646L291 646L295 650L286 651ZM255 647L264 646L267 650L259 651ZM320 643L322 642L326 646L323 647ZM243 643L255 642L256 646L246 647ZM269 641L271 638L276 638L281 642L286 643L287 646L280 647L278 643L270 643ZM254 639L255 637L260 637L263 634L271 636L270 639L264 640L264 643L261 643L260 640ZM302 627L308 626L312 633L316 635L321 642L319 643ZM103 598L141 598L146 602L106 603L103 601ZM760 533L750 533L750 537L753 537L750 536L751 534ZM745 532L741 532L740 537L733 536L733 538L745 537L743 536L743 533ZM104 532L106 533L106 536L104 537L119 538L110 537L108 532ZM777 533L784 534L786 533L784 532L785 530L799 529L777 529L781 531L780 533ZM50 529L64 530L66 533L96 534L99 532L85 532L84 529L88 528ZM72 531L76 530L77 532L73 533ZM357 482L354 489L355 494L358 488ZM449 456L448 461L450 463ZM74 456L72 458L74 462ZM80 442L80 447L82 449L82 443ZM601 436L599 437L599 441L602 440L600 439ZM93 420L91 421L93 429ZM584 410L583 414L586 412ZM422 404L420 409L422 409ZM120 374L122 382L122 376ZM125 369L123 372L126 375ZM148 328L150 334L150 329ZM156 316L158 322L158 316ZM1293 309L1291 310L1292 313ZM164 302L164 304L166 304L166 302ZM168 296L168 300L170 301L170 296ZM437 290L436 293L438 294ZM173 289L172 292L174 294ZM1727 284L1751 284L1752 286L1755 284ZM178 284L176 284L177 289ZM452 262L453 267L454 264ZM189 260L189 263L184 268L185 275L187 273L186 270L190 269ZM192 256L192 260L194 261L194 257ZM197 246L196 248L198 252ZM212 224L208 228L209 236L204 236L204 240L206 241L206 238L209 237L210 230L213 229ZM613 217L612 221L609 218L607 249L608 443L606 444L605 442L603 445L603 450L606 448L606 454L610 455L611 458L613 456L610 451L612 428L611 409L613 408L613 405L611 404L611 401L613 400ZM753 213L753 220L756 224L755 503L757 504L758 249L756 214ZM746 213L621 212L619 214L617 232L618 448L617 458L615 461L617 466L616 468L602 454L598 448L600 445L594 441L594 438L596 437L596 430L594 436L590 434L592 428L588 429L586 426L588 417L585 417L587 418L587 422L585 423L578 412L580 405L577 409L574 406L575 401L573 402L567 394L566 390L568 389L568 384L565 389L562 385L563 380L561 381L558 378L561 368L557 375L550 364L552 362L552 356L550 360L546 357L548 348L545 353L538 344L538 342L541 341L540 334L540 340L538 341L534 337L537 333L535 329L534 332L531 331L531 326L529 327L526 320L523 318L522 311L524 305L522 311L518 309L521 297L518 304L514 302L513 298L516 297L517 289L516 296L513 297L506 288L509 285L508 278L507 285L503 283L501 279L505 276L505 272L503 272L503 276L501 277L494 269L496 265L494 266L490 262L490 258L493 256L493 250L490 257L483 250L482 246L486 245L487 250L489 244L483 245L481 241L472 242L472 244L469 245L471 246L470 250L464 257L462 256L460 249L463 261L459 265L456 265L459 267L444 289L441 289L443 293L439 297L432 297L435 305L431 309L429 306L429 310L431 311L430 314L423 322L419 331L414 334L415 338L410 341L411 345L404 352L402 357L403 365L407 369L405 371L405 380L407 373L411 376L408 388L410 384L409 381L411 380L415 384L415 387L413 388L413 395L414 389L416 388L423 397L427 406L425 408L427 408L431 413L429 415L429 424L430 416L435 420L432 424L434 425L433 432L435 425L439 427L439 430L436 432L436 440L438 441L439 432L443 435L440 442L440 448L442 449L443 440L447 443L447 447L444 450L444 456L446 455L446 449L448 448L455 459L452 472L454 471L453 465L456 464L459 467L456 476L457 477L459 473L463 475L461 487L463 482L467 485L465 488L467 489L467 493L464 498L465 508L466 494L468 493L471 499L471 515L474 519L475 552L472 563L470 562L470 520L468 526L468 552L471 564L471 583L467 594L466 612L463 617L463 633L459 640L459 658L455 665L455 681L451 688L451 700L453 703L456 703L460 699L463 687L468 684L466 683L466 680L472 676L470 672L477 664L478 659L485 652L489 653L486 656L489 657L492 647L490 651L487 651L486 648L498 634L500 635L500 638L497 640L501 641L500 638L504 637L505 633L509 633L509 628L507 628L507 632L504 631L503 635L499 634L506 624L524 606L528 609L533 609L532 606L534 604L537 605L530 601L547 586L550 586L552 589L557 588L551 587L550 585L564 574L568 575L567 579L563 579L562 582L558 583L558 585L561 586L564 582L569 581L569 577L574 577L574 575L567 574L570 570L573 570L575 573L581 573L580 571L573 570L575 566L579 566L581 569L585 570L588 569L587 567L581 567L580 564L582 562L586 562L588 565L593 564L588 562L590 558L603 561L602 559L595 559L594 557L621 542L627 543L627 546L620 547L621 549L629 549L629 547L634 544L638 545L637 543L627 543L626 541L629 538L635 538L638 541L647 542L652 537L661 536L664 533L674 532L672 531L673 529L685 530L689 529L692 525L703 526L710 522L728 521L729 518L743 518L745 516L744 514L726 515L724 519L720 517L716 519L703 519L697 523L686 523L684 527L672 527L671 530L660 531L659 535L646 534L649 530L656 530L661 526L668 526L673 522L682 522L688 518L698 518L705 514L718 514L727 510L744 510L748 505L749 237L748 215ZM526 604L530 602L532 606L527 607ZM636 538L640 534L647 535L644 539ZM434 301L435 297L439 298L436 302ZM222 208L216 216L218 221L218 218L221 217L222 214L220 211ZM645 204L645 206L744 206ZM621 205L632 206L632 204ZM243 173L240 176L241 180ZM620 177L741 177L743 174L741 171L737 171L736 173L733 173L732 171L729 171L728 173L713 173L712 171L705 171L704 173L637 173L636 171L629 171L628 173L622 173ZM272 124L272 127L268 128L270 129L269 134L270 130L273 129L274 126ZM290 93L288 96L290 96ZM325 32L323 36L325 39ZM756 29L754 129L756 163L758 100ZM610 28L607 33L607 160L609 163L612 160L614 165L611 128L612 57L614 37L612 36L613 29L613 32L611 33ZM619 25L616 56L616 144L618 166L747 167L749 116L748 28L746 26ZM344 19L339 22L339 27L336 30L334 29L334 25L332 25L335 32L331 37L329 36L330 33L328 37L330 37L331 40L327 44L323 53L319 56L317 52L315 56L312 56L313 61L315 57L319 58L314 67L311 69L309 64L307 68L304 68L305 74L307 69L311 72L288 109L286 108L286 102L284 101L283 104L287 112L282 122L275 130L184 286L181 288L172 305L168 309L166 315L148 342L115 399L112 402L110 401L110 397L114 395L114 389L117 389L118 382L116 382L116 386L113 387L112 395L109 395L108 400L104 401L105 406L107 402L111 403L110 408L93 435L90 433L89 427L89 435L84 437L83 440L85 444L87 441L86 438L91 438L88 446L80 456L78 455L78 449L75 452L79 459L72 470L70 469L70 466L68 469L64 469L67 481L63 484L62 478L60 478L60 483L56 484L53 488L52 496L53 498L54 490L56 489L59 492L57 497L59 502L74 502L85 506L107 506L118 510L132 510L139 514L149 514L156 518L165 518L172 522L179 522L185 526L192 526L197 530L203 530L208 534L214 534L217 538L212 539L206 538L205 535L195 535L194 531L183 530L181 527L169 527L168 523L153 522L152 519L136 519L134 515L116 515L110 511L80 510L77 507L60 507L59 509L68 510L69 513L107 513L108 517L128 518L129 521L134 522L149 521L150 525L153 526L163 525L168 529L172 528L180 533L189 534L192 537L204 537L204 541L215 542L215 545L223 546L225 549L231 550L233 553L242 553L242 557L248 559L250 557L251 560L249 561L256 565L263 565L267 562L271 562L273 566L268 568L272 573L278 573L278 571L272 569L273 566L277 566L280 570L283 570L286 573L285 575L279 575L278 577L284 577L286 574L289 574L297 580L296 583L292 582L290 579L285 579L284 581L291 585L300 582L303 586L298 587L298 589L306 586L323 601L322 603L317 603L321 606L320 609L328 606L331 609L330 611L332 610L335 613L329 617L333 617L337 614L339 618L336 621L334 619L333 621L337 621L340 618L351 629L359 640L357 644L360 642L363 645L359 649L356 649L356 652L361 655L362 647L367 651L364 661L368 654L371 657L369 659L369 669L372 668L373 673L374 672L373 668L370 667L369 661L371 660L379 670L376 684L378 674L381 673L383 676L381 680L385 680L387 689L390 692L391 700L394 703L399 702L401 698L398 691L398 676L394 664L394 644L390 635L390 620L386 612L385 598L389 593L387 580L387 595L384 596L382 592L382 581L378 575L378 568L374 560L374 553L377 551L378 544L377 536L373 536L374 529L373 526L369 524L369 513L367 516L367 526L371 526L371 538L369 539L366 535L366 529L362 523L362 517L365 515L366 505L363 504L363 515L361 516L358 512L358 505L361 501L361 492L357 496L359 497L359 503L356 504L354 502L355 497L352 495L349 487L353 483L352 475L351 484L349 485L346 482L350 469L349 466L345 464L345 458L341 455L341 448L339 448L339 456L337 457L334 455L334 448L324 444L230 444L241 427L243 428L243 433L239 435L239 441L333 441L329 439L330 436L246 436L245 433L248 430L250 423L253 421L253 418L257 415L257 411L260 410L265 398L269 395L269 391L272 390L273 384L277 381L277 377L281 375L283 370L285 371L285 366L293 356L293 351L291 351L289 355L287 355L286 352L292 344L295 345L296 350L297 345L301 343L301 339L305 337L305 332L302 331L301 328L306 324L307 331L309 331L309 325L313 324L312 318L310 320L310 324L307 323L306 320L312 312L315 313L314 316L316 318L317 313L321 311L321 307L324 306L324 300L328 299L330 292L333 292L332 284L331 286L329 285L330 282L334 280L336 286L337 281L341 279L341 275L345 273L345 268L341 266L343 262L345 262L347 267L349 267L350 262L353 260L353 256L365 241L365 238L362 235L362 232L365 229L369 236L366 226L370 224L371 228L373 228L370 219L373 218L375 224L377 223L377 218L381 216L381 212L378 211L377 208L382 204L382 208L384 210L385 206L389 204L390 199L393 197L393 193L397 191L397 186L401 184L400 180L398 184L394 183L398 175L401 174L404 179L405 175L409 172L409 168L413 167L413 161L417 159L417 156L415 155L414 160L412 160L410 156L417 147L419 148L419 153L421 152L418 147L419 137L423 138L424 148L425 138L421 136L421 132L419 130L418 136L413 133L413 131L417 129L417 125L413 123L413 118L409 116L409 112L407 111L406 117L401 112L405 109L405 104L401 103L401 96L398 95L396 90L394 96L390 94L390 91L393 89L393 84L391 83L390 89L386 87L389 82L389 76L385 75L385 69L381 67L380 63L378 69L374 66L373 63L376 62L377 56L373 55L373 48L370 47L369 42L367 42L366 48L362 46L361 43L365 41L365 35L363 35L362 41L358 39L361 34L361 27L358 27L357 22L355 21L355 27L353 28L350 26L351 21ZM321 605L324 602L327 606L322 607ZM258 559L264 558L266 562L259 563ZM243 551L249 550L258 557L255 559L250 555L244 554ZM226 543L232 542L237 546L243 547L244 550L238 551L234 547L227 546ZM372 538L375 540L374 552L372 552L370 548L370 540ZM217 539L224 538L227 542L222 543ZM58 486L62 486L63 489L59 491ZM71 470L71 474L67 477L67 471ZM345 465L347 466L346 476L342 473ZM339 458L343 460L342 467L338 463ZM254 409L254 415L251 416L250 420L248 420L246 427L242 427L242 423L245 421L250 411ZM266 389L266 395L263 395L261 402L257 407L255 407L254 404L262 391ZM274 376L275 379L273 380L275 382L271 383L270 388L267 387L267 383ZM281 363L283 366L280 368L279 375L277 376L274 374L274 371ZM284 357L287 358L287 361L282 363L281 361ZM299 335L299 343L294 343L294 339ZM298 333L301 331L303 335L301 336ZM317 305L319 306L318 312L313 310ZM326 293L327 298L323 299L322 304L319 303L318 301L321 296ZM328 286L331 289L330 292L326 290ZM334 275L337 274L339 278L335 279ZM338 270L340 268L343 269L342 272L339 272ZM346 257L349 255L351 259L349 260ZM354 248L355 250L350 254L349 252ZM356 242L359 245L358 248L354 246ZM362 236L363 239L358 242L357 240ZM374 213L377 211L379 215L377 216ZM390 192L391 194L386 200L387 203L383 203L382 201L386 194ZM393 185L395 186L394 192L390 190ZM410 160L411 166L407 167L406 171L403 171L402 169ZM414 124L415 128L412 130L410 127ZM407 117L411 118L410 124L406 121ZM398 106L402 105L403 108L400 110ZM398 97L399 100L396 103L394 99ZM386 77L387 80L384 83L382 79ZM381 69L383 70L382 76L378 73ZM370 58L374 57L375 60L372 62ZM369 49L371 50L370 56L366 53ZM357 29L359 30L358 35L354 32ZM743 21L740 20L741 16L737 17L736 21L621 22ZM625 16L632 16L633 18L680 18L681 16L700 18L701 16L708 16ZM344 13L348 14L347 12Z"></path>
<path fill="#0F172A" d="M384 752L382 751L380 753ZM366 746L366 748L372 749L369 749ZM361 741L361 745L363 745L361 743L365 742ZM357 738L353 738L353 741L355 741L353 740L354 738ZM389 736L388 737L390 736L393 738L393 741L391 742L393 744L393 737ZM500 736L498 735L485 742L488 743L485 745L485 748L487 745L493 744L494 741L500 741ZM460 733L464 747L467 735L463 740L462 733ZM504 734L505 737L512 735L506 732ZM333 729L333 732L335 732L335 729ZM464 728L465 733L467 730L471 731ZM385 728L385 731L383 732L386 735L389 732L388 729ZM517 727L518 732L520 732L521 729L525 729ZM526 725L525 724L524 726ZM318 725L324 725L325 728L328 729L326 728L328 724L321 723ZM534 722L548 721L537 719ZM545 718L548 717L546 716ZM305 716L305 718L308 718ZM281 711L281 713L287 711L290 713L290 717L296 717L292 716L293 712ZM577 710L580 711L581 707L589 707L577 708ZM491 711L483 712L482 710L486 707L480 704L480 708L482 710L476 716L476 719L472 720L471 724L468 724L475 723L481 717L483 719ZM482 716L484 715L485 717L483 718ZM486 712L488 711L489 713L487 714ZM52 703L37 704L40 707L39 709L36 707L27 708L48 709L48 706L45 704ZM225 702L225 704L228 704L228 702ZM71 705L68 704L68 701L65 701L64 705L53 705ZM769 701L772 701L773 704L796 705L798 709L812 709L811 704L809 705L808 703L787 705L786 703L791 700L789 699L772 699ZM796 704L800 703L801 705L797 706ZM780 700L784 699L785 704L781 705ZM772 700L776 699L777 701L773 702ZM633 699L617 699L617 705L610 705L609 703L593 703L592 706L593 709L604 709L605 705L628 705L628 700ZM602 704L604 703L605 705L603 706ZM495 699L492 699L492 702ZM230 705L248 705L249 708L268 709L271 707L273 712L270 713L276 713L278 708L268 707L265 709L263 703L253 703L255 704L254 706L249 706L245 704L246 700L233 699L233 704ZM237 699L240 700L239 705L236 704ZM672 698L669 698L668 701L661 701L672 700ZM193 698L193 700L196 700L196 698ZM82 696L85 698L91 697ZM638 696L639 698L644 698L644 695ZM200 701L204 701L205 695L212 695L202 695ZM105 700L108 700L109 697L124 697L113 697L112 695L109 695ZM507 689L503 691L507 691ZM470 682L469 685L467 684L467 689L469 691L464 692L466 696L469 696L469 690L473 689L469 688ZM450 682L449 684L451 687L453 683L451 684ZM448 680L444 681L445 700L446 682ZM523 677L522 676L512 683L510 688L513 683L515 684L518 682L519 678ZM471 677L474 680L477 679L474 676ZM474 678L476 677L477 679L475 680ZM495 672L492 673L486 681L481 681L480 687L476 689L476 697L479 692L483 693L482 689L484 688L484 685L487 685L489 679L491 681L493 679L493 675L495 677ZM401 668L402 683L402 672L405 672L406 688L405 668ZM374 668L372 669L372 676L376 677L378 684L378 678L374 675L376 672L374 671ZM547 667L552 667L552 670L554 668ZM541 671L539 672L534 667L525 675L530 674L533 670L538 671L539 674ZM506 666L500 664L500 667L497 670ZM309 665L312 663L309 663ZM305 661L297 663L300 665ZM485 659L482 664L478 662L479 670L477 672L481 671L481 666L485 664ZM836 657L834 657L831 662L836 664L837 668L834 669L834 688L832 696L830 695L830 689L830 700L833 700L834 677L837 668ZM364 657L365 663L367 660L369 661ZM360 653L361 657L362 654ZM567 653L559 651L560 654L557 657L553 655L548 662L539 663L538 666L544 666L545 662L551 662L553 659L559 658L560 654L567 655ZM356 645L356 648L359 649L358 645ZM352 642L354 644L354 642ZM532 643L523 651L523 645L527 643L527 640L524 640L524 642L514 651L516 654L513 655L512 653L508 657L510 655L514 656L520 650L522 651L521 654ZM837 637L834 637L833 652L834 640L837 640ZM353 638L351 637L349 640ZM13 637L11 641L11 656L15 684L14 673L15 662L17 660L15 657L15 660L13 661L11 656L11 642L13 638L15 639L15 652L15 637ZM502 636L499 638L501 639L500 641L496 641L497 643L498 641L500 643ZM262 636L259 641L264 642L265 639L262 639ZM244 636L241 639L243 641L245 639ZM627 635L623 636L625 638ZM603 643L597 643L594 639L595 636L592 635L594 636L593 639L585 639L581 645L579 643L575 647L567 648L568 650L575 650L576 648L587 644L585 643L586 641L589 643ZM644 635L640 634L637 638ZM397 634L395 640L398 641L398 648L398 644L401 644L402 652L401 637ZM452 633L452 652L454 652L455 641L452 640L452 637L456 636L455 633ZM607 632L606 631L600 635L601 637ZM252 631L252 636L254 636L256 634ZM637 629L639 632L642 631ZM220 629L216 628L216 631L212 631L220 631ZM658 629L657 627L649 628L654 628L655 630ZM33 627L21 628L20 633L22 634L23 631L29 631L27 629ZM511 624L510 627L505 627L507 628L506 632L503 632L505 636L505 633L512 629ZM507 628L509 627L510 629L508 630ZM234 626L231 624L229 625L229 628L230 626ZM37 627L39 630L37 626L38 624L40 624L41 627L48 627L45 627L44 625L52 624L37 624ZM804 624L797 624L796 621L792 621L791 623L776 623L787 623L787 628L789 629L788 627L793 623ZM300 623L310 631L309 627L311 626L314 629L313 631L316 631L304 620ZM304 625L307 624L308 626L305 627ZM162 623L174 624L180 623L180 621L170 620L174 620L175 622ZM1097 620L1102 622L1117 621L1117 619ZM780 620L769 619L757 621ZM677 623L684 628L684 623L696 623L688 623L688 620L708 620L677 620ZM515 619L514 624L516 624ZM149 621L160 620L150 619ZM84 620L61 620L60 623L58 621L57 623L63 628L69 627L63 627L63 623L73 623L67 623L67 620ZM2234 618L2234 621L2249 622L2254 620ZM1768 619L1768 621L1773 622L1788 621L1788 618ZM1180 618L1180 621L1185 622L1201 621L1201 619ZM1034 618L1034 621L1037 622L1055 621L1055 619ZM298 617L296 619L298 620L300 619ZM2021 616L2021 620L2027 622L2039 622L2045 620L2028 619ZM717 620L751 620L736 619L737 617L749 617L728 616L720 617L724 617L724 620ZM95 620L107 620L113 616L121 617L119 620L113 620L120 620L121 618L140 620L132 619L133 617L139 617L120 616L96 617L104 617L105 619ZM697 613L697 616L700 616L700 613ZM672 613L667 610L668 613L665 614L665 617L662 619L654 618L652 616L649 618L660 620L665 617L672 616ZM461 608L457 609L456 620L459 620L459 616L456 616L458 612L464 616L462 615ZM170 607L168 608L169 610ZM676 614L692 613L693 609L701 610L696 609L695 607L693 607L692 610L689 610L687 605L686 610L681 610L684 610L684 613ZM713 603L714 608L712 609L716 608L716 605ZM315 600L316 605L319 605L320 608L322 606L324 613L327 613L328 616L330 616L332 620L334 620L336 624L338 624L340 628L343 628L347 633L345 629L339 625L338 621L334 617L331 617L332 615L330 612L320 606L317 600ZM316 603L318 602L319 604L317 605ZM274 600L274 607L281 606L282 610L287 612L286 616L288 618L288 615L296 615L293 614L292 609L289 610L286 608L284 610L280 602ZM287 613L291 612L292 614L288 615ZM103 601L99 600L98 602L90 602L89 600L85 602L73 602L76 602L77 604L98 604ZM28 602L34 602L35 604L48 604L48 602L44 601L35 602L30 600ZM752 600L757 602L763 601L768 604L806 604L808 602L815 602L812 600L806 602L769 602L764 599L757 600L755 597ZM542 595L526 611L523 611L521 620L524 614L528 613L529 609L532 609L538 601L541 601L543 598ZM530 607L532 606L533 608L531 609ZM534 603L536 602L537 604L535 605ZM16 594L17 596L18 595ZM460 585L460 604L462 604L463 592L460 590L464 588L463 585ZM292 586L293 589L296 589L307 597L306 595L309 594L307 592L305 594L303 592L304 590L299 588L300 586ZM559 586L557 583L553 586L556 586L556 589L548 590L551 590L552 592ZM822 580L823 585L825 585L826 588L826 585ZM273 574L277 574L284 580L286 578L278 576L281 574ZM824 574L822 573L819 575L821 576ZM572 574L575 576L578 574L575 574L574 572ZM219 572L225 577L231 578L233 581L230 582L240 583L241 585L239 587L241 585L248 586L248 589L255 592L253 595L261 594L262 598L266 596L269 602L272 599L272 597L266 596L265 593L258 592L257 588L252 589L249 587L250 585L243 584L243 581L237 580L236 576L230 576L229 573L226 574L225 572ZM584 570L581 570L580 568L578 570L581 571L580 573ZM214 568L215 570L219 569ZM260 565L262 568L271 572L271 570L267 568L268 566L266 564L263 566ZM256 564L259 562L265 562L258 562ZM601 561L598 562L594 560L593 562L589 562L593 562L593 565L588 566L587 564L584 566L589 568ZM382 557L382 563L377 564L378 567L378 565L381 564L382 572L386 572L385 578L383 579L386 581L386 584L387 581L389 582L390 593L388 597L390 598L390 603L391 597L394 600L394 614L391 616L394 617L394 624L394 620L397 620L398 632L397 613L394 613L393 593L390 591L389 577L386 575L386 565L384 568L382 567L382 564L384 563L382 561ZM598 558L602 558L604 561L606 558L612 557L605 558L603 555L601 558ZM468 553L467 557L465 556L465 553L464 576L467 573L466 561L468 560ZM244 553L241 555L242 556ZM157 550L164 550L169 554L176 554L178 558L185 558L190 562L196 562L200 566L205 566L201 564L200 561L198 563L197 560L193 560L192 557L181 556L180 553L173 552L172 548ZM169 552L171 551L172 553L170 554ZM164 549L166 548L167 550L165 551ZM636 545L631 547L625 545L623 546L627 546L628 548L621 550L619 547L617 550L614 550L618 550L619 552L613 555ZM378 545L378 551L375 552L378 553L378 560L378 554L380 553ZM156 545L151 549L156 548ZM810 542L810 553L810 550L812 549L815 567L817 568L815 566L821 564L818 564L817 561L816 564L814 563L814 556L817 556L813 552L813 545ZM810 546L812 545L813 548L811 549ZM213 542L215 544L215 542ZM137 545L144 546L143 544L148 543L148 541L140 541ZM716 545L712 541L706 540L704 544L693 544L692 548L681 548L680 552L669 552L668 556L661 556L660 560L649 560L648 564L641 564L640 568L633 568L631 572L625 572L624 576L616 576L616 579L611 580L609 584L602 584L602 587L595 589L595 592L586 592L585 595L580 597L575 604L570 604L568 608L561 609L558 615L552 617L551 620L548 620L548 622L537 631L540 631L542 627L544 629L548 626L551 620L558 619L555 618L557 615L565 615L568 608L576 606L577 608L578 603L589 598L591 595L596 594L598 590L602 588L605 589L608 586L611 586L612 588L615 586L613 585L614 583L619 582L620 584L621 579L627 578L628 580L630 578L628 577L630 574L638 575L635 572L636 570L645 570L654 562L664 562L668 558L675 558L676 555L687 554L688 551L698 550L705 546ZM544 625L546 624L547 626L545 627ZM673 553L676 552L677 554L674 555ZM686 549L688 548L689 550L687 551ZM697 545L700 544L701 546L698 547ZM632 542L637 542L638 544L640 542L644 542L638 542L636 540L635 542ZM806 537L806 541L807 539L809 540L809 537ZM2173 536L2171 536L2171 543L2167 546L2167 553L2170 548L2173 548ZM207 538L205 536L201 539L204 540ZM42 536L36 538L35 544L32 548L35 551L35 556L33 557L31 552L27 557L27 564L24 566L23 575L19 577L19 584L16 587L21 578L23 579L23 584L25 579L25 567L27 568L27 575L29 569L27 568L27 562L30 561L31 565L35 561L35 553L37 550L40 550L39 542L42 540ZM37 539L39 540L38 549L35 547ZM668 533L657 534L659 535L658 537L650 539L661 537ZM192 536L200 534L196 534L195 532ZM96 535L100 538L113 538L114 536L119 536L121 542L124 542L125 537L110 536L109 538L106 538L105 533L103 532L97 533ZM673 532L680 530L673 530ZM1762 529L1759 533L1756 533L1756 612L1761 612L1762 608ZM1328 529L1328 612L1334 613L1334 530ZM1172 529L1172 612L1174 613L1174 529ZM85 529L85 531L92 534L88 529ZM2224 528L2223 608L2224 612L2227 613L2229 612L2229 534L2228 529ZM1809 528L1809 530L1811 529ZM1207 528L1208 613L1209 530ZM788 531L776 530L777 528L784 528L761 529L760 532L744 533L743 538L740 536L721 537L717 542L731 542L733 540L733 536L736 536L737 538L756 537L756 535L750 535L750 532L760 532L761 534L780 534L781 531ZM764 532L766 531L767 533L765 534ZM47 529L51 530L52 528L56 528ZM1985 529L1983 533L1984 539L1979 541L1979 547L1976 548L1975 557L1972 557L1971 569L1968 570L1966 579L1964 580L1963 589L1960 590L1959 601L1956 602L1956 613L1958 613L1958 605L1962 604L1963 614L1984 615L1983 618L1964 619L1964 621L1985 621L1985 618L1988 617L1986 606L1987 602L1990 600L1991 613L1995 606L2008 605L2014 607L2016 609L2016 613L2018 613L2018 606L2020 605L2023 607L2022 612L2025 614L2046 614L2046 607L2042 601L2042 596L2045 593L2047 594L2048 605L2051 605L2052 612L2053 601L2049 599L2049 588L2047 589L2045 587L2045 581L2041 579L2041 569L2037 567L2037 561L2035 561L2035 573L2039 573L2039 584L2043 584L2042 596L2039 594L2039 589L2035 583L2034 576L2031 574L2030 565L2033 560L2033 549L2029 548L2029 541L2025 539L2025 533L2023 533L2023 543L2021 544L2018 540L2019 533L2017 534L2012 527L1996 527L1991 529L1991 538L1989 540L1986 539L1987 532ZM2007 598L2010 597L2011 601L2008 602ZM2016 596L2019 598L2018 603L2015 601ZM2002 597L2005 596L2006 598L2003 599ZM1990 597L1994 596L1995 599L1993 600ZM1964 593L1967 594L1967 600L1965 603L1962 602ZM1974 573L1975 578L1971 584L1971 589L1967 592L1966 585L1970 581L1971 574ZM1998 574L2000 570L2004 572L2002 575ZM2004 570L2006 569L2009 574L2007 575ZM1978 561L1979 568L1975 572L1974 564ZM2003 558L2007 563L2006 568L2002 567L2004 564L2002 563ZM2028 552L2031 554L2030 564L2026 559ZM1980 550L1983 554L1983 558L1981 560L1978 559ZM2025 543L2027 544L2026 554L2022 548ZM1986 541L1987 547L1983 551L1982 545L1983 542ZM1056 529L1056 532L1052 533L1052 544L1048 545L1048 552L1044 553L1044 564L1040 565L1040 572L1036 573L1036 584L1034 586L1032 585L1032 592L1029 593L1028 604L1024 605L1024 612L1027 612L1030 608L1030 601L1034 599L1034 592L1036 591L1039 595L1038 600L1034 605L1034 614L1055 614L1057 616L1055 613L1058 609L1058 603L1061 600L1063 601L1063 613L1065 613L1065 609L1068 606L1082 605L1087 607L1088 612L1090 612L1090 603L1087 602L1087 596L1091 598L1095 612L1098 614L1118 614L1119 605L1123 606L1123 613L1125 613L1126 605L1122 600L1122 593L1118 591L1117 582L1114 580L1109 560L1106 559L1105 550L1102 549L1101 540L1098 539L1097 530L1091 528L1091 530L1088 531L1085 527L1068 527L1063 532L1062 539L1059 542L1058 529ZM1070 598L1082 597L1083 601L1074 602L1071 601ZM1062 597L1065 596L1066 598L1063 599ZM1114 593L1118 594L1118 603L1114 601ZM1115 581L1115 592L1113 593L1110 590L1110 586ZM1107 573L1111 574L1110 583L1106 580ZM1076 571L1080 570L1082 574L1079 575ZM1070 574L1072 570L1075 571L1073 575ZM1104 564L1107 568L1106 572L1102 570L1102 566ZM1074 565L1077 564L1078 567L1075 568ZM1075 558L1078 559L1077 564L1074 563ZM1099 553L1102 554L1102 563L1098 559ZM1058 541L1059 544L1055 552L1054 559L1051 562L1042 590L1039 592L1038 582L1040 580L1042 581L1042 570L1044 569L1045 571L1046 561L1050 559L1050 552L1054 549L1054 542ZM1091 533L1094 534L1095 541L1098 543L1098 552L1094 549L1094 544L1090 538ZM1182 526L1179 529L1179 611L1181 614L1201 614L1202 527ZM161 526L172 530L166 529L165 526ZM1845 528L1842 529L1842 535L1839 536L1838 525L1832 527L1817 527L1803 543L1801 542L1801 539L1804 538L1807 532L1805 530L1804 535L1799 536L1797 529L1795 528L1794 544L1792 549L1790 548L1789 528L1766 528L1767 614L1788 614L1791 592L1794 593L1794 612L1797 613L1799 600L1809 613L1809 605L1811 604L1819 613L1818 615L1815 615L1817 621L1825 623L1832 622L1836 624L1837 621L1840 621L1840 618L1823 619L1819 618L1818 615L1841 615L1842 609L1845 609L1846 612L1849 613L1849 608L1845 604L1845 600L1837 594L1837 590L1833 587L1833 584L1830 583L1829 578L1826 577L1825 573L1819 566L1826 555L1829 554L1839 541L1841 541L1841 538L1845 537ZM1838 603L1841 602L1843 607L1841 608ZM1834 599L1838 598L1839 602L1837 603ZM1806 599L1808 598L1810 602L1807 603ZM1802 594L1804 593L1807 598L1803 599ZM1798 588L1800 587L1802 591L1799 592ZM1827 586L1831 587L1831 591L1835 594L1834 597L1826 589ZM1793 585L1794 589L1791 591L1789 588ZM1823 583L1826 582L1827 585L1825 586ZM1794 583L1797 582L1799 586L1797 587ZM1817 575L1821 575L1824 581L1822 582ZM1814 571L1817 570L1818 574L1816 575ZM1812 562L1814 563L1813 567L1810 566ZM1813 562L1815 558L1818 559L1817 562ZM1817 557L1819 554L1821 555L1819 558ZM1820 553L1822 552L1823 554L1821 555ZM1790 551L1793 550L1794 553L1791 555ZM1823 550L1825 547L1827 548L1825 551ZM1827 546L1829 543L1831 544L1829 547ZM1801 542L1802 545L1795 550L1794 548L1799 542ZM1838 538L1833 543L1830 542L1832 538ZM2312 528L2307 532L2306 536L2303 535L2305 524L2298 527L2283 527L2276 535L2274 534L2275 528L2272 528L2267 534L2265 533L2265 529L2262 529L2259 533L2259 545L2261 547L2263 546L2264 549L2257 556L2256 554L2259 549L2256 546L2255 528L2233 526L2232 607L2235 614L2255 614L2257 593L2260 594L2260 608L2262 611L2265 612L2265 602L2267 601L2272 611L2278 613L2279 612L2275 607L2277 604L2285 613L2280 616L2282 620L2286 622L2305 621L2305 619L2285 618L2284 615L2306 614L2307 605L2310 606L2313 613L2317 612L2317 609L2314 608L2314 605L2309 600L2309 596L2307 596L2304 590L2301 589L2297 578L2295 580L2293 579L2293 573L2291 569L2287 567L2289 562L2297 555L2297 552L2305 542L2313 536ZM2298 595L2301 594L2302 598L2304 598L2307 603L2303 603L2298 598ZM2266 593L2268 592L2276 602L2272 603ZM2264 588L2266 587L2267 590L2265 591ZM2291 582L2293 582L2299 590L2298 593L2290 585ZM2262 582L2265 586L2260 587L2257 591L2256 588L2259 583ZM2283 570L2286 571L2291 579L2290 581L2288 581L2282 573ZM2280 562L2282 563L2281 567L2278 566ZM2287 554L2288 557L2284 562L2282 562L2281 560ZM2291 550L2292 552L2289 555L2288 553ZM2291 549L2293 548L2294 550L2292 551ZM2302 538L2303 540L2295 547L2294 544L2298 538ZM2271 538L2271 542L2265 547L2264 544L2269 538ZM2271 535L2274 534L2275 537L2272 539ZM684 524L682 526L684 526ZM169 524L169 526L176 526L171 526ZM370 521L370 525L366 528L370 528L370 533L370 526L372 525ZM145 522L149 524L149 522ZM2277 525L2279 526L2281 522L2301 522L2304 520L2304 516L2281 517L2281 519L2277 521ZM2233 517L2233 521L2235 522L2253 522L2252 516ZM2125 517L2124 520L2118 520L2116 524L2112 525L2112 527L2108 529L2108 532L2104 534L2104 537L2099 541L2099 545L2096 548L2095 553L2096 559L2099 560L2100 567L2108 574L2109 577L2112 578L2111 581L2119 582L2120 586L2125 586L2126 588L2124 591L2121 591L2115 586L2109 589L2101 588L2095 597L2095 604L2099 605L2100 609L2104 606L2108 606L2112 610L2116 610L2119 613L2118 615L2111 615L2110 611L2104 612L2112 617L2113 620L2128 622L2132 625L2140 625L2141 621L2151 622L2154 617L2158 617L2158 615L2152 615L2151 613L2157 610L2160 606L2163 607L2163 610L2159 612L2164 613L2165 610L2173 604L2173 601L2175 599L2177 600L2177 577L2173 575L2173 572L2169 571L2169 568L2165 567L2165 564L2161 565L2165 568L2167 573L2170 574L2171 579L2174 582L2174 593L2172 594L2171 601L2167 602L2166 599L2169 592L2168 580L2163 572L2153 564L2154 562L2161 561L2161 558L2154 557L2153 555L2163 553L2161 547L2165 544L2165 538L2168 535L2168 532L2160 533L2150 527L2135 525L2125 527L2117 531L2109 540L2106 539L2107 535L2110 534L2116 526L2121 526L2124 522L2151 522L2154 526L2161 526L2164 529L2164 524L2158 524L2157 520L2149 520L2147 516ZM2118 615L2151 614L2152 617L2147 619L2119 618ZM2165 602L2167 603L2167 606L2163 607L2162 605ZM2100 597L2103 598L2102 604L2099 603ZM2124 593L2125 590L2145 591L2143 595L2128 595ZM2102 594L2104 589L2108 591L2106 595ZM2145 586L2147 587L2146 591L2144 590ZM2134 583L2143 582L2145 586L2135 585ZM2122 579L2130 578L2134 582L2123 582ZM2115 575L2119 574L2122 578L2117 579ZM2110 571L2112 570L2116 574L2111 574ZM2106 567L2109 566L2111 570L2108 571ZM2132 555L2142 554L2144 558L2150 558L2152 562L2145 562L2140 558L2134 558ZM2146 551L2149 550L2151 554L2147 554ZM2127 551L2130 550L2132 554L2128 554ZM2130 548L2132 546L2143 546L2146 550L2131 551ZM2104 541L2107 542L2105 550L2105 557L2107 560L2106 564L2102 561L2101 553ZM1993 521L2014 521L2012 517L1997 516L1997 519ZM1811 525L1814 526L1815 522L1832 522L1836 519L1836 516L1818 516L1816 520L1812 521ZM1769 516L1769 521L1772 522L1788 521L1788 517ZM1649 516L1644 520L1638 520L1631 528L1625 529L1624 535L1612 545L1611 551L1608 553L1607 557L1608 589L1612 593L1614 600L1617 601L1624 609L1628 609L1629 613L1634 613L1636 610L1642 611L1644 613L1643 615L1635 615L1635 617L1640 621L1656 621L1657 625L1663 625L1665 621L1674 622L1680 620L1685 613L1689 613L1694 609L1694 607L1697 606L1698 603L1706 596L1706 592L1710 588L1710 578L1712 576L1710 553L1706 551L1705 545L1699 539L1697 534L1695 534L1687 525L1681 524L1679 520L1673 520L1672 517ZM1643 615L1674 614L1675 617L1672 619L1646 619ZM1675 613L1678 610L1683 611L1682 615L1676 615ZM1682 610L1685 606L1689 608L1687 611ZM1629 609L1631 606L1636 608L1635 611L1630 611ZM1694 599L1694 603L1689 606L1688 604ZM1622 599L1624 598L1631 606L1627 607ZM1696 594L1698 595L1697 599L1694 598ZM1702 587L1703 590L1698 595L1697 592ZM1674 587L1664 595L1651 593L1653 590L1667 590L1671 586ZM1642 583L1645 582L1646 586L1651 590L1647 591ZM1641 564L1643 565L1643 580L1639 575L1639 566ZM1677 560L1679 564L1679 579L1677 584L1674 586L1674 562ZM1652 557L1665 557L1668 559L1668 583L1664 584L1663 588L1655 588L1655 585L1659 585L1650 583L1650 559ZM1642 557L1644 555L1646 556L1645 559ZM1703 554L1706 557L1707 566L1706 584L1704 587L1702 586ZM1666 551L1671 550L1677 556L1677 559L1675 560L1673 556ZM1645 554L1647 550L1651 551L1649 554ZM1698 550L1702 549L1703 554L1701 555ZM1616 549L1619 550L1619 554L1616 557L1615 579L1618 589L1623 597L1622 599L1620 599L1617 592L1614 591L1614 586L1611 583L1611 560ZM1652 548L1656 546L1663 546L1666 549L1664 551L1655 551ZM1694 543L1697 542L1699 546L1696 547ZM1626 538L1626 542L1619 549L1618 542L1622 542L1622 539ZM1626 535L1630 534L1631 530L1635 530L1636 526L1641 526L1645 522L1673 522L1677 526L1681 526L1683 530L1687 530L1695 541L1692 542L1681 531L1663 525L1646 527L1628 539L1626 538ZM1498 516L1496 520L1490 520L1488 524L1485 524L1483 528L1480 528L1479 532L1472 534L1468 543L1464 544L1464 549L1459 553L1459 560L1456 565L1456 581L1459 582L1460 591L1463 593L1463 596L1468 603L1480 613L1484 613L1485 617L1491 617L1492 621L1496 622L1527 622L1532 617L1535 617L1537 613L1544 611L1554 598L1557 597L1557 592L1562 588L1563 569L1561 552L1557 551L1556 544L1553 543L1548 534L1541 528L1538 528L1536 524L1532 524L1531 520L1522 520L1521 516ZM1534 611L1532 615L1527 615L1522 619L1498 619L1494 617L1495 614L1524 614L1529 610ZM1485 613L1487 610L1491 610L1495 614L1486 615ZM1533 610L1536 606L1540 607L1538 611ZM1476 603L1479 602L1487 610L1482 611ZM1546 599L1546 603L1540 607L1539 604ZM1473 600L1475 599L1476 601L1474 602ZM1470 597L1472 596L1474 599L1472 600ZM1501 591L1519 590L1520 592L1516 595L1505 595ZM1466 590L1470 590L1471 594L1468 595ZM1495 587L1499 586L1502 590L1498 591ZM1527 582L1528 585L1520 591L1519 588L1523 586L1524 582ZM1492 582L1494 581L1497 584L1494 586ZM1527 561L1529 561L1531 565L1531 576L1528 581L1526 580ZM1492 560L1495 561L1494 581L1490 579L1490 564ZM1504 557L1517 557L1520 559L1520 581L1516 584L1515 588L1506 588L1505 584L1501 583L1499 569L1501 560ZM1523 557L1525 554L1528 556L1527 559L1524 559ZM1496 554L1497 557L1493 559L1492 557ZM1518 551L1523 550L1525 554L1519 554ZM1496 554L1498 550L1503 551L1502 554ZM1554 549L1555 555L1558 558L1559 576L1555 592L1552 593L1550 599L1547 600L1546 598L1554 581L1554 560L1550 552L1551 549ZM1504 548L1512 546L1515 547L1516 550L1505 551ZM1542 539L1546 538L1547 542L1551 544L1551 547L1547 547ZM1477 538L1478 540L1467 557L1466 575L1468 588L1466 589L1463 587L1462 580L1463 557L1475 538ZM1538 535L1542 534L1543 538L1541 539ZM1533 531L1537 530L1539 534L1537 535ZM1477 538L1478 534L1481 534L1483 530L1486 530L1489 526L1493 526L1496 522L1525 522L1528 526L1534 527L1534 530L1530 531L1519 526L1502 526L1489 531L1480 539ZM1341 516L1340 522L1383 522L1387 526L1393 526L1394 530L1397 530L1399 534L1403 536L1403 540L1407 542L1407 560L1402 561L1402 543L1391 531L1382 527L1338 526L1337 607L1339 614L1386 614L1387 617L1344 619L1336 616L1336 620L1341 622L1361 623L1389 621L1390 618L1396 617L1397 613L1401 613L1401 610L1405 609L1406 605L1412 604L1413 597L1416 596L1416 581L1413 580L1413 576L1409 570L1405 568L1405 566L1409 564L1409 561L1412 560L1413 545L1409 544L1409 537L1406 536L1401 529L1397 527L1397 525L1393 524L1391 520L1381 520L1379 516ZM1387 613L1390 610L1394 610L1396 614L1388 615ZM1359 591L1380 590L1381 593L1361 595ZM1360 586L1362 585L1363 587L1361 588ZM1381 582L1384 584L1382 591L1380 590ZM1359 579L1377 578L1381 582L1360 583ZM1402 561L1403 570L1411 580L1411 597L1407 598L1407 604L1404 604L1400 611L1395 611L1394 609L1403 601L1407 589L1404 577L1395 569L1396 566L1400 567L1399 563ZM1374 556L1378 554L1379 558L1376 559ZM1359 556L1361 554L1371 555L1372 558L1360 559ZM1374 548L1376 547L1378 551L1376 552ZM1359 548L1361 546L1373 547L1374 549L1371 551L1361 551ZM1183 521L1201 522L1200 516L1185 516L1185 520ZM1066 521L1086 522L1087 525L1089 524L1089 520L1085 520L1083 516L1069 516L1069 519ZM139 518L135 516L132 520L126 519L133 520L134 518ZM725 515L721 517L724 520ZM745 514L745 517L747 517L747 514ZM93 514L104 514L107 516L107 514ZM366 509L366 514L363 517L366 518L366 521L366 518L368 517ZM464 505L465 524L468 525L466 523L467 509L466 505ZM362 497L361 504L359 505L362 507L362 504L364 503L362 501ZM49 493L48 500L51 500L51 493ZM358 489L357 494L353 495L357 496L358 499L358 494L360 493L360 490ZM456 477L456 484L460 486L460 496L464 497L465 494L462 492L462 485L460 484L458 477ZM2074 480L2080 482L2137 481L2138 476L2075 475ZM350 472L350 480L351 476L354 478L354 488L354 484L356 482L354 481L353 474ZM1572 471L1572 476L1574 477L1633 476L1633 471ZM1408 465L1408 468L1413 470L1477 469L1475 464ZM1268 463L1268 468L1272 470L1337 469L1337 467L1332 464ZM449 461L448 464L452 466L453 473L456 473L452 471L454 469L454 465L449 464ZM346 461L345 467L342 467L342 465L346 471L346 467L348 466ZM1105 462L1103 460L1101 463L1095 464L1039 463L1031 468L1034 470L1097 470L1101 469L1101 466L1105 465ZM608 456L611 459L613 457ZM79 444L74 452L69 453L68 464L65 465L59 480L56 481L56 483L59 484L59 487L59 478L62 477L63 480L64 478L67 478L64 476L63 469L67 469L70 466L75 465L73 462L76 457L75 452L78 449L79 454L79 451L81 450ZM71 458L74 457L75 459L72 460ZM83 438L80 441L83 443L83 447L85 445ZM330 437L328 440L331 439L332 442ZM596 428L595 432L597 433L597 437L595 438L595 441L595 439L600 436L601 441L599 442L600 444L604 444L601 440L600 434L599 436L597 435ZM432 425L432 432L436 433L432 431ZM591 421L591 427L593 428L593 421ZM1781 413L1780 424L1784 425L1784 456L1788 457L1789 464L1790 433L1787 437L1786 417L1784 413ZM425 412L424 417L425 419L426 417L428 418L429 428L430 422L428 419L430 418ZM421 404L420 412L422 412ZM261 401L260 400L259 402ZM2183 397L2180 398L2179 412L2180 424L2183 429L2184 448L2187 449L2189 448L2189 441L2187 437L2186 410L2183 405ZM576 396L574 400L575 403L578 402L581 405L581 409L579 410L582 409L585 412L584 417L588 416L589 420L589 413L586 413L585 409L581 408L580 400L578 400ZM419 393L418 395L422 398ZM414 389L412 389L413 397L414 394L412 393L412 390ZM568 381L569 389L567 392L570 389L572 394L573 388L569 387ZM274 378L271 382L274 383L273 389L274 386L277 385L277 382L276 384L274 383ZM120 377L117 377L115 385L109 389L108 395L105 397L103 403L96 412L96 416L92 420L95 426L89 426L84 434L84 436L87 437L87 442L89 442L87 441L88 429L91 429L91 433L94 429L98 419L101 417L100 412L102 411L103 414L103 411L109 402L107 400L108 396L110 395L111 399L113 397L111 390L114 388L115 394L115 390L118 389L115 388L115 382L118 381L119 385L121 383ZM105 401L107 402L106 407L104 406ZM559 365L559 371L561 372ZM552 348L551 356L553 357L553 361L556 366L557 361L556 358L555 361L553 360ZM302 333L302 343L299 345L298 340L297 349L294 348L294 345L290 352L293 351L294 356L290 358L290 360L297 351L298 346L302 344ZM540 332L539 335L543 338L543 346L545 341ZM306 327L306 330L304 331L306 332L306 336L309 332L306 331ZM533 317L528 321L531 322L531 325L535 327L537 332L537 325L533 324ZM314 313L312 316L314 324L311 325L310 321L310 328L310 326L314 324L314 320L317 319L314 318ZM318 310L318 316L318 314L321 313ZM432 300L428 301L428 308L426 309L425 306L424 312L420 313L420 319L416 321L415 325L412 325L412 332L408 333L408 340L405 340L404 343L400 345L400 348L397 349L396 368L400 369L401 376L404 377L405 384L405 381L408 381L408 384L410 385L409 389L410 381L402 375L401 366L400 368L398 367L398 353L403 353L401 349L405 347L407 341L410 342L410 334L416 333L414 330L417 327L421 327L419 326L419 323L423 321L422 315L426 313L427 309L430 309L428 307L431 303L435 302ZM329 298L328 300L325 298L324 305L322 304L322 300L322 308ZM171 292L165 297L164 301L167 303L160 305L159 312L153 317L152 323L148 325L147 331L144 333L144 336L141 337L140 344L133 349L133 355L124 365L123 371L120 372L123 378L127 378L128 376L124 374L123 370L126 368L127 373L127 370L135 361L135 357L139 354L139 350L145 343L147 344L146 338L151 333L151 330L158 321L160 322L159 318L163 314L163 310L166 309L168 303L172 303L173 301L171 298L173 297L173 294ZM129 360L131 361L130 365L128 364ZM149 328L151 329L150 333L148 332ZM152 322L154 321L155 324L153 325ZM160 310L162 309L163 311L161 312ZM515 289L514 299L516 296L519 297L520 303L518 304L523 306L523 314L526 313L528 318L529 312L525 308L524 301L524 304L521 304L520 296L517 295ZM334 284L332 285L334 287L334 292L331 293L330 289L330 296L330 294L334 292L334 288L337 287L335 287ZM512 282L511 287L513 288ZM504 276L502 279L508 277L509 282L507 283L509 284L509 277ZM183 273L181 274L180 279L177 280L176 284L173 285L172 289L175 289L175 293L175 290L178 289L185 277ZM176 284L178 283L179 286L177 287ZM180 278L182 277L183 280L181 281ZM346 265L346 272L349 268L347 268ZM188 261L190 265L194 262L191 260ZM490 257L497 258L494 265L498 265L504 272L505 270L501 269L500 262L499 264L497 263L497 257ZM462 250L460 255L456 256L456 260L453 262L452 267L448 269L448 275L444 276L444 283L442 284L441 282L440 288L436 289L436 295L434 296L433 294L432 296L437 296L436 292L445 283L444 281L447 281L447 279L452 276L450 275L451 271L455 269L455 265L462 256ZM1101 249L1100 256L1097 258L1097 273L1098 262L1100 261L1101 264L1102 263ZM358 245L357 254L355 255L352 253L354 255L354 260L351 263L357 255L358 250L361 249L358 248ZM465 244L464 249L466 250ZM205 240L200 240L200 243L196 245L196 251L192 253L192 255L195 257L198 255L200 256L199 250L202 249L206 242ZM196 249L198 248L199 251L197 252ZM1653 234L1651 241L1650 325L1652 397L1655 396L1655 238ZM207 232L206 234L204 233L204 235L208 236ZM1113 221L1112 231L1114 233ZM753 221L754 248L752 261L752 300L754 308L752 317L752 504L753 508L757 508L757 505L754 503L754 229L757 221L756 224ZM374 221L372 223L374 228L371 229L370 226L368 228L370 236L368 237L366 234L363 235L366 238L366 241L363 244L368 240L370 233L373 232L374 226L377 225ZM1661 224L1661 227L1816 226L1812 221L1681 220L1665 221L1664 224ZM215 217L208 227L211 224L214 227L218 222ZM611 216L608 216L607 248L607 225L609 217L611 218L611 224L613 224ZM1565 214L1560 217L1559 388L1561 465L1566 463ZM620 212L616 213L617 231L617 216ZM385 210L383 211L382 209L378 211L378 220L382 216L382 212ZM379 210L382 212L382 216L380 218L378 217ZM625 207L660 207L645 207L644 204L633 204L632 207ZM1989 189L1987 193L1987 236L1990 241L1991 193ZM394 187L394 196L397 192L394 192ZM405 178L403 179L402 177L399 179L402 181L400 186L398 185L398 182L398 184L395 185L397 185L398 188L400 187ZM745 171L742 172L744 174L742 177L745 177ZM619 171L620 176L622 172L628 172ZM410 163L410 165L407 166L410 167L409 173L412 169L410 167ZM414 156L412 159L414 160L414 164L414 162L417 161L414 160ZM415 154L418 156L421 155L421 153ZM1486 149L1483 153L1483 452L1484 456L1488 457L1490 420L1489 149ZM1401 148L1399 153L1399 456L1400 459L1403 460L1404 165L1403 150ZM1695 147L1695 199L1698 201L1768 200L1836 202L1835 205L1696 205L1696 209L1699 210L1835 209L1837 211L1836 400L1832 402L1813 402L1826 388L1826 237L1824 233L1822 237L1823 376L1822 387L1819 388L1817 232L1662 231L1660 234L1661 399L1804 399L1813 394L1815 390L1819 390L1819 393L1808 403L1667 403L1665 404L1665 409L1790 409L1793 407L1842 406L1843 409L1841 411L1791 411L1790 421L1794 435L1796 464L1869 465L1876 462L1882 462L1887 458L1890 458L1891 461L1889 463L1885 463L1883 466L1869 469L1805 469L1798 470L1798 473L1801 475L1873 474L1887 469L1897 461L1898 457L1901 457L1902 453L1905 453L1906 448L1909 449L1909 446L1912 445L1915 439L1917 424L1917 149L1911 148L1911 437L1908 440L1906 438L1906 148ZM1906 440L1907 447L1903 448L1903 451L1892 459L1891 457L1902 446L1902 442ZM1717 346L1719 342L1761 342L1763 344L1761 347ZM1728 292L1752 294L1751 337L1741 337L1740 340L1727 339L1726 294ZM1732 290L1735 289L1736 291L1733 292ZM1719 289L1722 290L1721 340L1718 339ZM1759 288L1762 289L1761 340L1758 339ZM1726 289L1731 288L1732 291L1729 292ZM1762 283L1761 287L1725 286L1727 283ZM1717 283L1720 282L1722 286L1719 287ZM1839 209L1843 210L1843 400L1841 404L1838 399L1837 211ZM1838 202L1842 201L1843 205L1840 206ZM1411 147L1408 148L1407 153L1407 456L1408 460L1411 461L1479 460L1480 152L1479 149L1475 147ZM1144 148L1145 157L1147 158L1146 163L1142 163L1142 153L1140 153L1140 159L1136 161L1136 168L1132 169L1132 183L1135 187L1134 194L1132 196L1130 195L1129 181L1128 191L1124 193L1124 203L1127 207L1126 214L1124 216L1122 215L1121 201L1120 212L1123 221L1120 225L1118 224L1118 213L1116 213L1116 223L1119 226L1119 230L1115 236L1115 241L1113 244L1110 243L1109 232L1108 240L1105 241L1104 251L1107 255L1106 263L1103 266L1102 273L1099 276L1098 283L1091 296L1091 300L1086 313L1083 316L1083 320L1079 324L1078 313L1082 313L1082 304L1086 303L1086 294L1090 293L1090 284L1092 283L1093 285L1094 283L1093 269L1092 279L1088 281L1088 287L1084 289L1084 299L1080 301L1080 307L1076 309L1076 316L1072 317L1072 328L1068 329L1068 336L1064 337L1064 344L1061 345L1060 356L1056 357L1056 364L1052 365L1052 376L1048 377L1048 384L1044 385L1044 396L1040 397L1040 404L1037 405L1036 416L1032 417L1032 424L1029 425L1028 436L1024 437L1024 448L1020 449L1020 456L1022 457L1023 452L1025 453L1025 456L1026 446L1028 445L1029 447L1030 434L1032 433L1034 435L1034 426L1038 423L1038 413L1042 413L1042 404L1046 403L1046 392L1050 391L1051 384L1053 384L1055 388L1050 397L1050 403L1047 406L1045 415L1042 417L1042 423L1034 440L1034 445L1030 450L1030 461L1045 459L1096 460L1101 459L1104 450L1107 451L1107 459L1109 460L1109 454L1113 453L1118 433L1122 428L1122 422L1125 421L1126 414L1129 412L1131 405L1239 405L1243 410L1244 419L1247 420L1253 444L1256 445L1256 452L1258 451L1260 457L1262 457L1262 450L1264 449L1267 453L1268 459L1272 460L1339 460L1339 450L1335 446L1335 437L1332 435L1330 428L1334 423L1335 433L1339 433L1339 444L1343 445L1343 456L1349 456L1349 449L1345 448L1345 437L1341 436L1340 425L1337 424L1337 417L1333 416L1333 405L1329 404L1328 393L1324 391L1325 385L1321 384L1320 373L1316 371L1317 365L1313 364L1313 357L1309 355L1308 349L1305 348L1304 337L1301 335L1301 330L1297 328L1296 317L1294 332L1291 330L1291 325L1287 320L1286 313L1290 309L1293 310L1291 313L1291 320L1293 319L1293 310L1289 307L1288 298L1287 311L1285 312L1282 308L1278 294L1282 291L1284 300L1285 292L1284 289L1281 289L1281 281L1277 279L1276 270L1276 283L1274 284L1270 279L1270 274L1273 271L1273 261L1269 259L1268 249L1267 262L1264 263L1262 260L1262 254L1265 251L1264 240L1263 252L1261 253L1258 250L1258 244L1255 242L1254 234L1258 229L1260 241L1261 233L1260 229L1257 228L1257 221L1253 219L1252 209L1251 222L1249 223L1246 219L1246 214L1249 211L1249 202L1245 199L1244 190L1243 202L1241 203L1238 199L1238 194L1241 191L1241 182L1237 179L1236 165L1233 164L1232 157L1231 171L1227 171L1226 163L1229 159L1229 149L1227 150L1226 148L1227 160L1225 161L1222 158L1223 153L1216 147L1155 147L1149 149L1151 151L1147 157L1145 156L1146 149ZM1109 440L1111 441L1111 447L1107 448L1106 443ZM1259 438L1263 442L1262 448L1258 447ZM1114 429L1115 435L1112 438L1110 431ZM1255 428L1259 431L1257 438L1254 437ZM1118 418L1119 424L1118 427L1115 428L1114 422ZM1251 417L1255 419L1255 426L1253 428L1250 423ZM1120 409L1123 410L1121 416L1118 415L1118 411ZM1247 406L1249 406L1251 410L1250 416L1246 413ZM1325 401L1327 402L1327 413L1331 413L1330 426L1327 423L1327 417L1322 408ZM1147 401L1152 400L1153 402L1148 403ZM1131 401L1135 400L1136 402L1132 403ZM1242 395L1247 398L1247 403L1245 405L1243 404L1244 399L1241 398ZM1122 407L1122 398L1127 395L1241 396L1240 399L1126 399L1126 407ZM1313 369L1316 373L1315 381L1319 381L1319 391L1320 392L1322 389L1324 390L1322 404L1319 402L1319 397L1315 391L1315 385L1311 381L1310 375ZM1060 363L1063 365L1063 368L1058 377L1058 383L1055 384L1054 373L1058 373L1058 364ZM1305 351L1308 353L1307 361L1311 361L1310 372L1307 371L1307 365L1302 357ZM1070 344L1070 352L1066 357L1066 363L1063 364L1062 353L1066 352L1066 345ZM1297 331L1299 332L1299 341L1303 342L1302 352L1299 351L1299 345L1295 342L1294 333ZM1147 333L1150 330L1220 330L1223 334L1148 335ZM1076 323L1079 325L1079 329L1074 337L1074 343L1071 344L1070 334L1074 333L1074 324ZM1153 322L1155 323L1155 327L1151 328L1150 326ZM1215 320L1219 323L1217 328L1214 327ZM1157 312L1159 313L1158 322L1154 319L1154 315ZM1211 309L1215 310L1214 320L1210 319ZM1162 301L1163 309L1160 312L1158 310L1158 303ZM1207 297L1211 300L1211 307L1208 309L1206 308ZM1165 289L1167 290L1167 299L1163 300L1162 294ZM1203 285L1207 290L1207 295L1204 297L1202 296ZM1168 281L1171 282L1170 292L1166 287L1166 283ZM1277 280L1279 281L1278 292L1274 289ZM1199 277L1203 279L1203 283L1200 285L1198 284ZM1174 269L1175 276L1174 279L1171 280L1170 273ZM1195 266L1199 270L1199 275L1196 277L1194 276ZM1269 261L1271 262L1270 273L1266 269ZM1187 259L1188 268L1192 270L1192 280L1196 282L1196 289L1200 293L1200 300L1204 302L1204 312L1208 314L1208 323L1210 326L1159 328L1158 326L1161 324L1161 317L1165 313L1166 304L1169 304L1169 297L1172 296L1174 284L1177 281L1177 274L1181 272L1181 265L1184 264L1184 261ZM1191 256L1195 259L1195 263L1192 268L1190 267ZM1182 249L1183 257L1179 259L1180 271L1178 272L1174 267L1174 263L1178 256L1178 251ZM1187 246L1189 246L1191 250L1191 254L1189 256L1186 252ZM1107 243L1111 246L1110 253L1108 255L1106 254ZM1186 236L1187 239L1185 240L1187 241L1187 246L1183 248L1182 240ZM1253 220L1255 221L1254 232L1250 228L1250 224ZM1245 200L1247 201L1246 212L1242 209L1243 202ZM1127 193L1131 196L1131 201L1128 205L1126 204ZM1237 180L1239 181L1238 192L1234 189L1235 182ZM1135 173L1139 176L1139 180L1136 185L1134 184ZM1233 171L1235 172L1234 182L1230 179L1230 174ZM1139 164L1143 166L1143 171L1140 175L1138 174ZM1410 140L1412 143L1476 143L1478 141L1474 139ZM1219 140L1192 138L1154 139L1152 142L1219 143ZM1997 180L1997 182L2073 183L2072 187L1996 187L1995 189L1996 241L2052 240L2065 242L2062 246L1996 245L1996 249L2062 250L2063 287L1974 289L2072 290L2074 294L1974 295L1972 300L1969 296L1969 299L1972 301L1971 325L1967 324L1966 296L1963 301L1964 345L1972 343L1975 349L2064 350L2065 353L2063 355L1975 356L2063 358L2064 469L2069 468L2069 381L2071 356L2073 357L2073 469L2075 471L2138 471L2140 469L2141 356L2144 361L2143 465L2147 469L2149 468L2150 357L2227 357L2226 388L2188 389L2188 393L2191 392L2194 394L2228 395L2227 397L2188 398L2187 403L2191 418L2191 435L2195 450L2253 451L2264 450L2275 446L2280 442L2283 443L2283 445L2278 447L2275 451L2269 451L2261 455L2195 455L2192 452L2193 460L2259 461L2262 458L2272 457L2274 453L2280 453L2282 450L2286 449L2300 433L2303 432L2306 424L2307 413L2309 412L2308 297L2303 296L2303 415L2302 420L2299 423L2299 427L2295 431L2294 427L2298 420L2298 296L2300 289L2262 287L2262 242L2273 242L2277 238L2283 238L2288 234L2295 234L2298 230L2308 229L2310 225L2313 225L2313 222L2304 223L2303 221L2306 218L2313 218L2315 209L2318 210L2318 216L2321 217L2322 209L2321 204L2318 203L2318 197L2310 185L2309 178L2306 175L2306 169L2301 164L2301 160L2293 150L2291 150L2290 156L2287 154L2286 150L2289 148L2289 144L2286 144L2285 140L2276 139L2272 142L2250 148L2247 151L2238 152L2238 156L2236 157L2240 158L2248 154L2253 154L2256 151L2264 150L2267 147L2276 146L2279 143L2283 143L2286 146L2285 148L2277 148L2274 151L2268 151L2262 155L2257 155L2251 159L2245 159L2239 162L2235 162L2234 160L2235 173L2239 179L2238 181L2234 179L2234 176L2230 172L2229 164L2224 165L2224 172L2227 174L2225 178L2150 176L2148 140L2144 141L2143 145L2143 180L2141 181L2139 155L2140 141L2137 137L2074 137L2072 176L2070 175L2069 164L2070 145L2067 141L2067 137L2064 137L2062 176L2017 177L2012 180ZM2294 430L2295 434L2286 443L2284 443L2283 440L2292 430ZM2231 395L2233 391L2236 392L2235 395ZM2233 357L2236 358L2236 386L2234 388L2231 385ZM2233 349L2236 350L2235 355L2231 353ZM2140 350L2226 349L2228 353L2226 355L2146 354L2141 356ZM2071 348L2074 350L2072 356L2069 353ZM2250 292L2252 290L2296 290L2298 293L2296 295L2252 295ZM2139 291L2188 290L2190 294L2140 295ZM2150 250L2180 251L2178 288L2149 287ZM2070 250L2073 251L2073 284L2071 288L2069 287ZM2187 249L2189 250L2188 288L2186 287L2184 253ZM2141 249L2146 252L2144 254L2142 288L2140 287ZM2182 243L2189 242L2190 244L2188 246L2184 246ZM2139 243L2146 242L2147 244L2141 247ZM2069 245L2070 242L2074 243L2072 246ZM2181 243L2178 246L2151 246L2147 244L2148 242L2166 241ZM2066 242L2068 241L2069 244L2067 245ZM2264 234L2271 234L2272 237L2268 238ZM2259 229L2261 228L2263 231L2261 232ZM2293 227L2291 230L2284 231L2281 234L2272 234L2273 231L2281 230L2285 226ZM2293 226L2296 222L2304 223L2302 226ZM2255 216L2259 225L2255 228L2255 287L2253 288L2251 257L2252 225L2254 223L2253 217ZM2252 214L2254 213L2255 215L2253 216ZM2139 184L2141 182L2239 182L2241 186L2140 187ZM2302 181L2305 182L2307 189L2311 194L2311 198L2315 204L2314 207L2310 205L2310 201L2302 187ZM2299 173L2302 174L2302 180L2298 178ZM2295 165L2299 168L2298 172L2294 169ZM2291 157L2295 160L2294 164L2290 160ZM752 137L752 161L753 164L756 165L757 161L754 161L754 137ZM1696 141L1906 141L1903 136L1700 136L1697 137ZM2137 128L2074 128L2074 131L2082 134L2134 134L2137 133ZM415 123L413 125L414 127L414 124L416 123L418 125L417 130L419 129L421 131ZM1640 119L1633 120L1631 123L1614 128L1611 131L1590 136L1590 139L1596 141L1598 139L1605 138L1608 135L1617 134L1619 131L1638 125L1645 126L1645 131L1637 129L1624 135L1620 135L1614 139L1609 139L1603 143L1597 143L1595 145L1588 144L1587 153L1584 153L1583 149L1580 148L1581 157L1584 158L1584 161L1587 162L1592 172L1600 180L1605 191L1608 192L1608 196L1612 198L1612 203L1573 204L1573 206L1613 206L1621 211L1570 213L1571 466L1632 467L1634 465L1634 222L1636 220L1639 222L1639 465L1641 465L1643 460L1644 219L1651 217L1654 214L1659 214L1663 210L1667 210L1672 206L1680 205L1679 200L1671 203L1667 203L1666 201L1680 195L1682 193L1683 186L1686 188L1685 197L1690 196L1690 152L1688 150L1684 153L1685 175L1683 176L1678 165L1671 158L1670 153L1662 144L1662 141L1659 139L1657 134L1649 127L1649 125L1645 124L1644 121ZM1647 211L1646 214L1639 215L1637 219L1633 216L1640 210ZM1646 210L1649 206L1657 207L1655 210ZM1622 207L1624 206L1627 211L1622 212ZM1656 206L1660 202L1667 203L1665 206ZM1618 199L1620 198L1623 203L1619 203ZM1615 195L1617 194L1619 198L1616 199ZM1610 187L1612 186L1615 191L1611 192ZM1679 182L1681 181L1683 185L1681 186ZM1607 180L1611 184L1610 187L1606 182ZM1675 174L1678 175L1680 180L1679 182L1674 177ZM1602 175L1604 174L1606 178L1603 179ZM1669 167L1671 166L1675 172L1673 173ZM1595 163L1601 169L1603 173L1602 175L1599 174L1599 171L1594 166ZM1666 163L1669 162L1670 166L1668 167ZM1590 159L1593 158L1596 162L1592 163ZM1661 155L1664 154L1667 160L1665 161ZM1586 154L1588 153L1589 155L1587 156ZM1658 151L1661 150L1662 154L1660 155ZM1650 139L1653 138L1658 146L1655 147ZM1645 131L1648 130L1651 136L1649 137ZM406 105L405 110L409 111L406 108ZM283 105L277 109L276 116L273 117L272 123L268 125L267 129L265 129L260 143L256 145L256 151L249 157L248 163L244 165L244 171L240 173L240 176L237 177L236 183L232 185L232 191L228 193L228 196L225 197L224 203L220 205L222 213L226 209L230 198L233 197L235 191L239 191L240 189L238 188L242 182L240 180L240 174L244 174L243 178L246 176L246 171L250 169L250 162L257 157L259 149L264 149L262 148L263 141L266 141L267 136L269 135L269 129L274 128L278 119L283 117ZM248 163L250 164L249 168L247 167ZM271 126L273 125L274 127L272 128ZM399 94L398 100L398 97L400 96L402 98L402 108L402 104L405 103L402 101L402 97ZM390 77L389 84L392 82L394 84L393 90L398 92L394 88L393 82L390 81ZM303 69L301 69L300 75L296 77L296 80L293 81L292 88L289 89L291 95L289 96L288 94L287 97L284 97L284 100L290 102L290 98L295 96L294 94L298 87L296 88L295 85L299 84L305 75ZM385 68L386 77L388 74L386 73ZM378 57L377 62L375 63L378 65L379 62L381 63ZM374 49L374 57L377 55L374 53ZM366 37L366 41L364 42L366 44L366 42L369 41ZM757 28L753 29L751 57L749 56L749 45L749 100L749 61L753 61L752 128L754 128L754 32ZM608 28L607 32L610 29L614 36L612 29ZM362 28L362 36L365 34L362 33ZM358 25L358 31L361 26ZM616 33L619 25L731 25L616 24ZM334 24L328 25L328 31L325 33L326 36L321 37L316 51L308 57L308 63L304 65L304 67L307 68L307 65L310 64L311 61L314 61L311 59L311 56L314 55L315 57L315 53L322 49L322 40L324 39L326 42L326 37L332 29L331 25ZM744 17L701 17L700 19L681 17L676 20L633 20L680 20L681 18L684 18L685 20L700 20L701 22L701 18L704 18L705 20L708 20L709 18L712 18L713 20L716 20L717 18L728 18L729 20L732 20L737 16L740 16L741 18ZM620 17L625 20L626 18L632 18L624 16ZM344 12L342 14L344 14Z"></path>
</g>
</svg>